<svg width="56" height="55" viewBox="0 0 56 55" fill="none" xmlns="http://www.w3.org/2000/svg">
<path d="M25.2812 24.7891V13.9557H30.6979V24.7891H41.5312V30.2057H30.6979V41.0391H25.2812V30.2057H14.4479V24.7891H25.2812ZM27.9896 54.5807C13.0315 54.5807 0.90625 42.4555 0.90625 27.4974C0.90625 12.5393 13.0315 0.414062 27.9896 0.414062C42.9477 0.414062 55.0729 12.5393 55.0729 27.4974C55.0729 42.4555 42.9477 54.5807 27.9896 54.5807ZM27.9896 49.1641C33.7359 49.1641 39.2469 46.8813 43.3102 42.818C47.3735 38.7548 49.6562 33.2438 49.6562 27.4974C49.6562 21.751 47.3735 16.24 43.3102 12.1767C39.2469 8.11346 33.7359 5.83073 27.9896 5.83073C22.2432 5.83073 16.7322 8.11346 12.6689 12.1767C8.60565 16.24 6.32292 21.751 6.32292 27.4974C6.32292 33.2438 8.60565 38.7548 12.6689 42.818C16.7322 46.8813 22.2432 49.1641 27.9896 49.1641Z" fill="#464141"/>
</svg>
