<svg xmlns="http://www.w3.org/2000/svg" width="10" height="11" viewBox="0 0 10 11" fill="none">
<path d="M6.76758 10.3301H9.75714C9.87076 10.3301 9.96371 10.2372 9.96371 10.1236V3.70414C9.96371 3.58844 9.87076 3.49756 9.75714 3.49756H6.76758V10.3301ZM7.43489 4.80349H9.29645C9.41007 4.80349 9.50303 4.89645 9.50303 5.01007C9.50303 5.12369 9.41007 5.21665 9.29645 5.21665H7.43489C7.32126 5.21665 7.22831 5.12369 7.22831 5.01007C7.22831 4.89645 7.32126 4.80349 7.43489 4.80349ZM7.43489 6.07203H9.29645C9.41007 6.07203 9.50303 6.16499 9.50303 6.27861C9.50303 6.39223 9.41007 6.48519 9.29645 6.48519H7.43489C7.32126 6.48519 7.22831 6.39223 7.22831 6.27861C7.22831 6.16499 7.32126 6.07203 7.43489 6.07203ZM7.43489 7.34066H9.29645C9.41007 7.34066 9.50303 7.43362 9.50303 7.54724C9.50303 7.66086 9.41007 7.75382 9.29645 7.75382H7.43489C7.32126 7.75382 7.22831 7.66086 7.22831 7.54724C7.22831 7.43362 7.32126 7.34066 7.43489 7.34066ZM7.43489 8.6092H9.29645C9.41007 8.6092 9.50303 8.70216 9.50303 8.81578C9.50303 8.92941 9.41007 9.02236 9.29645 9.02236H7.43489C7.32126 9.02236 7.22831 8.92941 7.22831 8.81578C7.22831 8.70216 7.32126 8.6092 7.43489 8.6092Z" fill="#929292"/>
<path d="M1.91119 7.79724C1.91119 7.68362 2.00415 7.59066 2.11777 7.59066H4.23754C4.35116 7.59066 4.44412 7.68362 4.44412 7.79724L4.4442 10.3303H6.35531V0.206579C6.35531 0.0908798 6.26235 0 6.14873 0H0.206579C0.0929563 0 0 0.0929562 0 0.206579V10.3303H1.9111L1.91119 7.79724ZM1.31195 1.477H5.0411C5.15472 1.477 5.24768 1.56996 5.24768 1.68358C5.24768 1.79928 5.15472 1.89016 5.0411 1.89016L1.31195 1.89025C1.19625 1.89025 1.10537 1.79937 1.10537 1.68367C1.10537 1.57005 1.19626 1.477 1.31195 1.477ZM1.31195 3.0225H5.0411C5.15472 3.0225 5.24768 3.11545 5.24768 3.22908C5.24768 3.3427 5.15472 3.43566 5.0411 3.43566H1.31195C1.19625 3.43566 1.10537 3.3427 1.10537 3.22908C1.10537 3.11545 1.19626 3.0225 1.31195 3.0225ZM1.31195 4.56584H5.0411C5.15472 4.56584 5.24768 4.6588 5.24768 4.77242C5.24768 4.88812 5.15472 4.979 5.0411 4.979L1.31195 4.97909C1.19625 4.97909 1.10537 4.88821 1.10537 4.77251C1.10537 4.6588 1.19626 4.56584 1.31195 4.56584ZM1.10537 6.31785C1.10537 6.20423 1.19626 6.11127 1.31195 6.11127H5.0411C5.15472 6.11127 5.24768 6.20423 5.24768 6.31785C5.24768 6.43147 5.15472 6.52443 5.0411 6.52443L1.31195 6.52452C1.19625 6.52452 1.10537 6.43156 1.10537 6.31785Z" fill="#929292"/>
</svg>