<svg width="63" height="45" viewBox="0 0 63 45" fill="none" xmlns="http://www.w3.org/2000/svg">
<path d="M42.668 0.164062C44.209 0.164062 45.4596 1.41473 45.4596 2.95573V14.6807L60.0126 4.49115C60.6435 4.05006 61.5145 4.2036 61.9584 4.83731C62.1203 5.07181 62.2096 5.35098 62.2096 5.63573V39.3591C62.2096 40.1296 61.5843 40.7549 60.8138 40.7549C60.5263 40.7549 60.2471 40.6656 60.0126 40.5036L45.4596 30.3141V42.0391C45.4596 43.5801 44.209 44.8307 42.668 44.8307H3.58464C2.04364 44.8307 0.792969 43.5801 0.792969 42.0391V2.95573C0.792969 1.41473 2.04364 0.164062 3.58464 0.164062H42.668ZM20.3346 11.3307V19.7057H11.9596V25.2891H20.3318L20.3346 33.6641H25.918L25.9152 25.2891H34.293V19.7057H25.918V11.3307H20.3346Z" fill="#F19B6C"/>
</svg>
