<svg width="201" height="130" viewBox="0 0 201 130" fill="none" xmlns="http://www.w3.org/2000/svg">
<g clip-path="url(#clip0_4891_68301)">
<path d="M8.95 129.69C9.12 129.86 42.33 118.45 42.33 118.45L29.53 89.1499L0 100.48L16.26 109.82L8.95 129.69Z" fill="#F19B6C"/>
<path d="M24.5293 97.97V58.08C24.5293 58.08 70.3393 49.7 103.349 50.2C136.359 50.7 170.349 56.11 170.349 56.11V94.41C170.349 94.41 66.8893 85.17 24.5293 97.97Z" fill="#F19B6C"/>
<path d="M24.2891 98.0099L42.2891 118.62V94.4099C42.2891 94.4099 27.2391 96.2099 24.2891 98.0099Z" fill="#E5804C"/>
<path d="M24.5305 58.0701C24.6805 58.0701 24.7405 67.0701 24.6805 78.0701C24.6205 89.0701 24.4405 98.0701 24.3005 98.0701C24.1605 98.0701 24.0905 89.1301 24.1505 78.0701C24.2105 67.0101 24.3805 58.0701 24.5305 58.0701Z" fill="#263238"/>
<path d="M185.851 126.63C185.681 126.8 152.471 115.39 152.471 115.39L165.241 86.0801L194.801 97.3901L178.531 106.73L185.851 126.63Z" fill="#F19B6C"/>
<path d="M170.529 94.9501L152.529 115.56V93.1001C158.564 93.3067 164.578 93.9248 170.529 94.9501Z" fill="#E5804C"/>
<path d="M170.331 56.1099C170.471 56.1099 170.631 64.7999 170.681 75.5299C170.731 86.2599 170.681 94.9499 170.511 94.9499C170.341 94.9499 170.211 86.2599 170.161 75.5299C170.111 64.7999 170.181 56.1099 170.331 56.1099Z" fill="#263238"/>
<path d="M50.3601 75.5699C50.2657 74.4215 50.5119 73.2707 51.068 72.2615C51.6242 71.2523 52.4655 70.4295 53.4868 69.8959C54.5081 69.3623 55.664 69.1417 56.81 69.2615C57.9561 69.3814 59.0413 69.8365 59.9301 70.5699L58.5301 72.2499C58.1532 71.9059 57.705 71.6496 57.2175 71.4992C56.73 71.3488 56.2152 71.308 55.7101 71.3799C54.8136 71.5046 54.0034 71.9802 53.4577 72.7022C52.912 73.4242 52.6754 74.3335 52.8001 75.2299C52.9247 76.1263 53.4004 76.9365 54.1224 77.4823C54.8444 78.028 55.7536 78.2646 56.6501 78.1399C57.1584 78.0731 57.6453 77.8928 58.0746 77.6123C58.5038 77.3319 58.8646 76.9586 59.1301 76.5199L60.8901 77.7499C60.238 78.6985 59.3206 79.4337 58.2527 79.8633C57.1847 80.293 56.0138 80.398 54.8864 80.1653C53.7591 79.9326 52.7254 79.3724 51.915 78.555C51.1045 77.7376 50.5532 76.6992 50.3301 75.5699H50.3601Z" fill="white"/>
<path d="M61.2698 74.07C61.0836 72.9154 61.2484 71.7316 61.7427 70.6718C62.237 69.6119 63.0381 68.7249 64.0423 68.1256C65.0465 67.5262 66.2075 67.2422 67.375 67.3102C68.5424 67.3782 69.6626 67.7951 70.5904 68.507C71.5182 69.2189 72.2109 70.193 72.5788 71.303C72.9467 72.4131 72.9729 73.6081 72.6539 74.7332C72.3349 75.8583 71.6855 76.8617 70.7897 77.6135C69.894 78.3653 68.7932 78.8309 67.6298 78.95C66.8889 79.0682 66.1317 79.0341 65.4044 78.8498C64.6772 78.6656 63.9951 78.335 63.3999 77.8783C62.8047 77.4216 62.3088 76.8483 61.9426 76.1935C61.5763 75.5387 61.3474 74.8162 61.2698 74.07ZM70.3798 73.13C70.2985 72.4811 70.028 71.8706 69.602 71.3745C69.176 70.8784 68.6133 70.5187 67.9842 70.3402C67.3551 70.1618 66.6874 70.1726 66.0644 70.3711C65.4414 70.5697 64.8906 70.9473 64.4808 71.4569C64.0709 71.9664 63.8202 72.5854 63.7598 73.2365C63.6995 73.8876 63.8321 74.5421 64.1413 75.1183C64.4505 75.6945 64.9224 76.1669 65.4983 76.4766C66.0743 76.7864 66.7286 76.9197 67.3798 76.86C67.8288 76.8304 68.2668 76.708 68.666 76.5004C69.0652 76.2927 69.417 76.0045 69.699 75.6538C69.981 75.3032 70.1871 74.8978 70.3043 74.4634C70.4215 74.0289 70.4472 73.5749 70.3798 73.13Z" fill="white"/>
<path d="M84.8393 77.3999L84.4093 71.0199L81.6193 76.4799L80.5193 76.5499L77.0693 71.6299L77.4793 77.8699L75.1693 78.0199L74.5293 67.3899L76.5293 67.2599L80.9293 73.6099L84.4193 66.7599L86.4193 66.6299L87.1393 77.2499L84.8393 77.3999Z" fill="white"/>
<path d="M98.6098 70.1199C98.6698 72.4999 96.9298 74.0199 94.0898 74.1199L91.9398 74.1799L92.0298 77.1199L89.5598 77.1899L89.2598 66.4799L93.8698 66.3499C96.7198 66.3099 98.5298 67.7399 98.6098 70.1199ZM96.1098 70.1899C96.1098 69.0199 95.2998 68.3599 93.7898 68.3999L91.7898 68.4599L91.8998 72.1599L93.8998 72.0999C95.3998 72.0599 96.1398 71.3499 96.1098 70.1899Z" fill="white"/>
<path d="M100.529 66.25H102.989V74.89H108.329V76.89H100.529V66.25Z" fill="white"/>
<path d="M117.881 75.2001V77.2001L109.631 76.9601L109.941 66.3101L117.941 66.5501L117.881 68.5501L112.281 68.3801L112.221 70.7001L117.161 70.8401L117.101 72.7601L112.161 72.6101L112.091 75.0801L117.881 75.2001Z" fill="white"/>
<path d="M122.439 68.7801L119.039 68.5801L119.159 66.5801L128.419 67.1401L128.299 69.1401L124.899 68.9301L124.379 77.5601L121.919 77.4101L122.439 68.7801Z" fill="white"/>
<path d="M137.39 76.66L137.21 78.66L128.99 77.9L129.99 67.3L137.99 68.04L137.81 70.04L132.23 69.48L132.02 71.79L136.94 72.2401L136.77 74.15L131.84 73.7001L131.62 76.15L137.39 76.66Z" fill="white"/>
<path d="M140.471 68.27L145.261 68.91C148.711 69.37 150.801 71.76 150.381 74.91C149.961 78.06 147.301 79.91 143.851 79.41L139.061 78.77L140.471 68.27ZM144.001 77.44C144.436 77.5099 144.881 77.4918 145.309 77.3869C145.737 77.282 146.14 77.0924 146.493 76.8292C146.847 76.5661 147.144 76.2347 147.368 75.8547C147.591 75.4748 147.737 75.0539 147.795 74.6169C147.853 74.1799 147.823 73.7357 147.706 73.3105C147.59 72.8853 147.39 72.4878 147.117 72.1413C146.845 71.7948 146.505 71.5065 146.119 71.2933C145.734 71.0801 145.309 70.9464 144.871 70.9L142.641 70.6L141.771 77.14L144.001 77.44Z" fill="white"/>
<path d="M190.82 59.74L193.44 62.81L200.81 59.74L198.66 56.51L190.82 59.74Z" fill="#455A64"/>
<path d="M187.442 45.13C187.442 45.8895 187.217 46.6319 186.795 47.2634C186.373 47.8949 185.773 48.3871 185.071 48.6777C184.37 48.9684 183.597 49.0444 182.853 48.8963C182.108 48.7481 181.423 48.3824 180.886 47.8453C180.349 47.3083 179.984 46.6241 179.836 45.8792C179.687 45.1343 179.763 44.3622 180.054 43.6605C180.345 42.9589 180.837 42.3591 181.468 41.9372C182.1 41.5153 182.842 41.29 183.602 41.29C184.619 41.2927 185.595 41.6981 186.314 42.4177C187.034 43.1372 187.439 44.1124 187.442 45.13Z" fill="#F19B6C"/>
<path d="M101.42 102.41C101.418 102.791 101.303 103.162 101.089 103.477C100.876 103.792 100.574 104.036 100.221 104.179C99.868 104.322 99.4808 104.357 99.1082 104.279C98.7357 104.202 98.3946 104.015 98.1283 103.743C97.862 103.471 97.6826 103.126 97.6127 102.752C97.5428 102.378 97.5858 101.992 97.736 101.642C97.8862 101.292 98.1369 100.995 98.4564 100.788C98.7758 100.581 99.1495 100.474 99.5301 100.48C100.036 100.488 100.518 100.695 100.872 101.056C101.226 101.418 101.423 101.904 101.42 102.41Z" fill="#FF725E"/>
<path d="M11.9708 73.55C11.9708 73.8396 11.8846 74.1226 11.7233 74.3632C11.5619 74.6037 11.3327 74.7908 11.0648 74.9006C10.7968 75.0105 10.5023 75.0383 10.2185 74.9803C9.93477 74.9223 9.67469 74.7813 9.47132 74.5751C9.26795 74.3689 9.13049 74.1069 9.07644 73.8224C9.02238 73.5378 9.05417 73.2437 9.16775 72.9773C9.28132 72.7109 9.47156 72.4843 9.71427 72.3263C9.95698 72.1683 10.2412 72.086 10.5308 72.09C10.9145 72.0952 11.2808 72.2514 11.5503 72.5246C11.8197 72.7978 11.9708 73.1662 11.9708 73.55Z" fill="#FF725E"/>
<path d="M6.55078 57.48L10.8508 57.74L12.8908 49.29L8.88078 49.45L6.55078 57.48Z" fill="#455A64"/>
<path d="M54.1715 101.58L51.5215 104.99L57.3315 111.45L59.4715 108.05L54.1715 101.58Z" fill="#455A64"/>
<path d="M43.8994 21.71L54.0494 32.07L68.3394 26.66L68.9094 30.21L62.7194 42.89L68.4194 52.35L67.9494 55.17L54.1194 52.84L45.9394 61.82L44.0194 60.36L42.3294 48.95L29.4294 42.23L28.8594 39.63L41.8494 36.07L43.8994 21.71Z" fill="#FF725E"/>
<g opacity="0.3">
<path d="M43.8994 21.71L54.0494 32.07L68.3394 26.66L68.9094 30.21L62.7194 42.89L68.4194 52.35L67.9494 55.17L54.1194 52.84L45.9394 61.82L44.0194 60.36L42.3294 48.95L29.4294 42.23L28.8594 39.63L41.8494 36.07L43.8994 21.71Z" fill="black"/>
</g>
<path d="M43.8994 18.8L54.0494 29.16L68.3394 26.66L61.6294 39.53L68.4194 52.35L54.1194 49.94L44.0194 60.3601L41.8894 46.01L28.8594 39.6301L41.8494 33.17L43.8994 18.8Z" fill="#F19B6C"/>
<path d="M149.149 21.71L138.989 32.07L124.689 26.66L124.129 30.21L130.319 42.89L124.609 52.35L125.089 55.17L138.919 52.84L147.099 61.82L149.019 60.36L150.709 48.95L163.609 42.23L164.179 39.63L151.189 36.07L149.149 21.71Z" fill="#FF725E"/>
<g opacity="0.3">
<path d="M149.149 21.71L138.989 32.07L124.689 26.66L124.129 30.21L130.319 42.89L124.609 52.35L125.089 55.17L138.919 52.84L147.099 61.82L149.019 60.36L150.709 48.95L163.609 42.23L164.179 39.63L151.189 36.07L149.149 21.71Z" fill="black"/>
</g>
<path d="M149.149 18.8L138.989 29.16L124.689 26.66L131.409 39.53L124.609 52.35L138.919 49.94L149.019 60.3601L151.149 46.01L164.179 39.6301L151.189 33.17L149.149 18.8Z" fill="#F19B6C"/>
<path d="M96.1888 3.54004L104.639 20.05L124.129 18.9L123.469 23.44L111.089 36.55L114.439 50.27L112.789 53.53L96.7988 45.42L83.4088 53.26L81.6188 50.75L83.8988 36.18L70.7188 23.07L71.0187 19.68L88.2188 20.29L96.1888 3.54004Z" fill="#FF725E"/>
<g opacity="0.3">
<path d="M96.1888 3.54004L104.639 20.05L124.129 18.9L123.469 23.44L111.089 36.55L114.439 50.27L112.789 53.53L96.7988 45.42L83.4088 53.26L81.6188 50.75L83.8988 36.18L70.7188 23.07L71.0187 19.68L88.2188 20.29L96.1888 3.54004Z" fill="black"/>
</g>
<path d="M97.2895 0L105.74 16.51L124.13 18.9L111.04 32.04L114.44 50.27L97.9095 41.88L81.6195 50.75L84.4895 32.43L71.0195 19.68L89.3295 16.75L97.2895 0Z" fill="#F19B6C"/>
</g>
<defs>
<clipPath id="clip0_4891_68301">
<rect width="200.82" height="129.69" fill="white"/>
</clipPath>
</defs>
</svg>
