<svg width="20" height="22" viewBox="0 0 20 22" fill="none" xmlns="http://www.w3.org/2000/svg">
<path fill-rule="evenodd" clip-rule="evenodd" d="M18.9129 2.2437L10.5873 10.6679C10.2368 11.0228 9.67059 11.0228 9.31921 10.6679L0.993561 2.2437C0.486521 1.7313 0.486521 0.897619 0.993561 0.384306C1.5006 -0.128098 2.32352 -0.128098 2.83056 0.384306L9.95369 7.59072L17.075 0.384305C17.583 -0.128098 18.4059 -0.128098 18.9129 0.384305C19.4199 0.897618 19.4199 1.7313 18.9129 2.2437Z" fill="white"/>
<path fill-rule="evenodd" clip-rule="evenodd" d="M19.0067 13.1773L10.681 21.6015C10.3305 21.9564 9.76433 21.9564 9.41296 21.6015L1.08731 13.1773C0.580271 12.6649 0.580271 11.8312 1.08731 11.3179C1.59435 10.8055 2.41727 10.8055 2.92431 11.3179L10.0474 18.5243L17.1688 11.3179C17.6767 10.8055 18.4996 10.8055 19.0067 11.3179C19.5137 11.8312 19.5137 12.6649 19.0067 13.1773Z" fill="white"/>
</svg>
