<svg width="302" height="186" viewBox="0 0 302 186" fill="none" xmlns="http://www.w3.org/2000/svg">
<g clip-path="url(#clip0_2151_32438)">
<path d="M296.763 46.6842L292.04 69.5669L289 66.6041L283.828 70.2928L279.875 65.3844L271.012 71.8334L263.436 59.1576L254.987 64.1104L251.636 59.4835L240.907 65.5325L237.68 58.6193L245.201 22.1719L285.521 30.5023L296.763 46.6842Z" fill="#EBEBEB"/>
<path d="M285.521 30.5039L296.763 46.6858L282.777 43.797L285.521 30.5039Z" fill="#DBDBDB"/>
<path d="M291.034 74.1439L284.11 107.717L229.799 96.5032L236.673 63.1914L239.901 70.1096L250.635 64.0605L253.981 68.6825L262.435 63.7296L270.005 76.4055L278.874 69.9565L282.822 74.8649L287.999 71.1762L291.034 74.1439Z" fill="#EBEBEB"/>
<path d="M213.301 70.2086L157.954 73.6356L153.557 2.54307L194.656 0L209.743 12.6611L213.301 70.2086Z" fill="#EBEBEB"/>
<path d="M194.656 0L209.743 12.6611L195.49 13.545L194.656 0Z" fill="#DBDBDB"/>
<path d="M179.332 47.8335L179.114 46.2287C178.557 42.9054 179.465 39.1871 182.352 35.3008C184.958 31.8442 186.369 29.3752 186.211 26.5704C186.034 23.4101 183.936 21.4152 180.032 21.5732C177.801 21.6891 175.659 22.4813 173.888 23.8447L172.186 20.0276C174.16 18.4227 177.614 17.2376 180.896 17.0648C188.017 16.6697 191.482 20.8868 191.753 25.5927C191.99 29.8048 189.809 32.9701 187.035 36.6687C184.489 40.0413 183.655 42.8214 184.015 45.9669L184.168 47.5767L179.332 47.8335ZM178.453 56.5787C178.325 54.2875 179.781 52.5888 181.947 52.4703C184.114 52.3518 185.693 53.8727 185.821 56.1689C185.94 58.3367 184.612 60.0847 182.322 60.2131C180.136 60.3365 178.557 58.7465 178.433 56.5787H178.453Z" fill="#DBDBDB"/>
<path d="M40.8927 35.7421L35.3258 33.2188L34.551 34.9224C34.4366 35.1658 34.2581 35.3735 34.0347 35.5232C33.8112 35.6728 33.5513 35.7587 33.2827 35.7717C32.9768 35.7817 32.6718 35.8114 32.3697 35.8606C32.1045 35.9 31.8336 35.8666 31.5859 35.764C31.3382 35.6614 31.1229 35.4933 30.9632 35.2779L29.8725 33.7521L24.9029 37.3173L25.9935 38.8431C26.1452 39.0634 26.2345 39.3206 26.2519 39.5875C26.2693 39.8544 26.2141 40.121 26.0922 40.3591C25.9515 40.6307 25.8247 40.9092 25.7122 41.1936C25.6145 41.4444 25.4502 41.6639 25.2372 41.8283C25.0242 41.9927 24.7704 42.096 24.5031 42.1269L22.6426 42.3096L23.2397 48.3982L25.1101 48.2105C25.3784 48.1891 25.6474 48.2412 25.8882 48.3613C26.1291 48.4813 26.3327 48.6648 26.4772 48.892C26.5561 49.0204 26.64 49.1438 26.7289 49.2673C26.8177 49.3907 26.9065 49.5092 27.0003 49.6278C27.1706 49.8351 27.2801 50.0856 27.3167 50.3515C27.3533 50.6174 27.3155 50.8882 27.2076 51.1338L26.4278 52.8523L31.9996 55.3805L32.7744 53.667C32.8899 53.4238 33.0694 53.2166 33.2938 53.0679C33.5181 52.9191 33.7788 52.8343 34.0477 52.8226C34.3501 52.8102 34.6517 52.7805 34.9508 52.7338C35.216 52.6944 35.4869 52.7278 35.7346 52.8304C35.9823 52.933 36.1975 53.101 36.3573 53.3164L37.448 54.8423L42.4226 51.2771L41.3319 49.7512C41.1755 49.533 41.0834 49.2753 41.066 49.0073C41.0485 48.7394 41.1064 48.4719 41.2332 48.2352C41.3707 47.9652 41.4942 47.6883 41.6033 47.4056C41.6982 47.153 41.8617 46.9318 42.0752 46.767C42.2888 46.6021 42.5441 46.5001 42.8124 46.4724L44.6828 46.2847L44.0808 40.1962L42.2103 40.3789C41.9438 40.4023 41.6759 40.3515 41.4364 40.2321C41.1969 40.1127 40.9951 39.9294 40.8532 39.7024C40.7693 39.574 40.6854 39.4505 40.5966 39.3271C40.5077 39.2036 40.4189 39.0802 40.3251 38.9666C40.156 38.7567 40.0473 38.5046 40.0107 38.2375C39.9742 37.9703 40.0113 37.6983 40.1179 37.4506L40.8927 35.7421ZM37.7342 41.3763C38.3113 42.1822 38.6366 43.1411 38.669 44.132C38.7014 45.1228 38.4394 46.101 37.9161 46.9428C37.3929 47.7846 36.6319 48.4523 35.7293 48.8613C34.8268 49.2704 33.8234 49.4024 32.8458 49.2408C31.8683 49.0792 30.9606 48.6311 30.2376 47.9533C29.5146 47.2755 29.0087 46.3983 28.784 45.4328C28.5592 44.4673 28.6257 43.4568 28.9749 42.529C29.3242 41.6013 29.9405 40.798 30.7461 40.2208C31.8259 39.447 33.1688 39.1341 34.4792 39.3508C35.7897 39.5675 36.9605 40.2961 37.7342 41.3763Z" fill="#EBEBEB"/>
<path d="M292.534 116.527L288.823 118.67L289.479 119.806C289.577 119.969 289.626 120.157 289.62 120.347C289.614 120.537 289.553 120.721 289.445 120.878C289.331 121.055 289.223 121.238 289.124 121.431C289.043 121.601 288.915 121.745 288.755 121.844C288.595 121.944 288.409 121.996 288.221 121.994H286.918V126.285H288.231C288.419 126.283 288.605 126.334 288.765 126.434C288.925 126.534 289.053 126.677 289.134 126.848C289.233 127.04 289.341 127.223 289.455 127.401C289.563 127.557 289.624 127.741 289.63 127.932C289.636 128.122 289.587 128.309 289.489 128.472L288.833 129.608L292.544 131.751L293.205 130.611C293.301 130.449 293.44 130.317 293.607 130.23C293.773 130.142 293.96 130.103 294.148 130.117H294.78C294.967 130.104 295.154 130.143 295.321 130.23C295.487 130.318 295.626 130.449 295.722 130.611L296.384 131.756L300.09 129.613L299.433 128.472C299.34 128.309 299.294 128.122 299.301 127.933C299.308 127.745 299.368 127.562 299.473 127.406C299.586 127.228 299.695 127.04 299.794 126.853C299.875 126.682 300.003 126.539 300.163 126.439C300.323 126.339 300.508 126.288 300.697 126.29H302.01V121.999H300.687C300.498 122.001 300.313 121.949 300.153 121.849C299.993 121.75 299.865 121.606 299.784 121.436C299.685 121.248 299.577 121.06 299.463 120.883C299.358 120.726 299.298 120.543 299.291 120.355C299.284 120.167 299.33 119.98 299.424 119.816L300.08 118.675L296.374 116.532L295.712 117.658C295.617 117.82 295.478 117.952 295.311 118.039C295.145 118.126 294.957 118.165 294.77 118.152H294.454H294.138C293.95 118.165 293.762 118.125 293.595 118.038C293.428 117.951 293.288 117.82 293.191 117.658L292.534 116.527ZM294.454 120.626C295.149 120.625 295.829 120.83 296.408 121.216C296.987 121.602 297.438 122.151 297.704 122.794C297.971 123.437 298.041 124.144 297.905 124.826C297.77 125.509 297.435 126.136 296.943 126.628C296.452 127.12 295.825 127.455 295.143 127.59C294.461 127.726 293.754 127.656 293.112 127.389C292.47 127.122 291.921 126.671 291.535 126.092C291.149 125.513 290.944 124.833 290.945 124.137C290.944 123.675 291.035 123.218 291.211 122.792C291.387 122.365 291.645 121.978 291.971 121.651C292.297 121.324 292.684 121.065 293.11 120.889C293.536 120.712 293.993 120.621 294.454 120.621V120.626Z" fill="#EBEBEB"/>
<path d="M52.1553 17.4965L48.755 20.1037L49.5397 21.1456C49.6567 21.2941 49.7287 21.4731 49.7471 21.6613C49.7655 21.8495 49.7294 22.039 49.6433 22.2073C49.5489 22.3995 49.4665 22.5974 49.3966 22.7999C49.3357 22.9782 49.2264 23.136 49.0808 23.2556C48.9352 23.3751 48.7591 23.4516 48.5724 23.4764L47.2695 23.6443L47.8223 27.8959L49.1251 27.728C49.3148 27.7016 49.5081 27.7292 49.6827 27.8079C49.8573 27.8865 50.0062 28.0129 50.1122 28.1724C50.231 28.3442 50.3595 28.5091 50.4971 28.6662C50.6242 28.8061 50.7086 28.9796 50.7401 29.1661C50.7716 29.3525 50.7489 29.5441 50.6748 29.718L50.1813 30.9328L54.1294 32.5771L54.6229 31.3624C54.6963 31.1881 54.8171 31.0379 54.9715 30.9288C55.1259 30.8197 55.3077 30.7561 55.4964 30.7451L55.8122 30.7106L56.1231 30.6612C56.3058 30.6267 56.4944 30.6431 56.6684 30.7084C56.8424 30.7737 56.9952 30.8854 57.1102 31.0315L57.9146 32.0833L61.3149 29.4761L60.5203 28.4341C60.4056 28.2836 60.3351 28.104 60.3168 27.9156C60.2985 27.7272 60.3331 27.5374 60.4167 27.3675C60.5103 27.1766 60.5926 26.9804 60.6635 26.7799C60.7243 26.6016 60.8337 26.4438 60.9793 26.3242C61.1249 26.2047 61.3009 26.1282 61.4876 26.1034L62.7905 25.9355L62.2378 21.6839L60.9349 21.8518C60.7457 21.8787 60.5528 21.8518 60.3782 21.7741C60.2036 21.6963 60.0545 21.571 59.9479 21.4123C59.8245 21.2345 59.6962 21.0666 59.558 20.9185C59.443 20.7756 59.3686 20.6044 59.3426 20.4228C59.3165 20.2412 59.3398 20.0559 59.4099 19.8865L59.9035 18.6717L55.9554 17.0273L55.4618 18.2421C55.3875 18.4157 55.2664 18.5653 55.1122 18.6742C54.9581 18.7832 54.7767 18.8473 54.5883 18.8593L54.2725 18.889L53.9813 18.8988C53.7987 18.9333 53.6101 18.917 53.4361 18.8517C53.2621 18.7864 53.1093 18.6746 52.9943 18.5285L52.1553 17.4965ZM54.5883 21.3135C55.2758 21.2251 55.974 21.3424 56.5949 21.6506C57.2158 21.9587 57.7316 22.444 58.0772 23.0452C58.4228 23.6463 58.5828 24.3364 58.5369 25.0284C58.4909 25.7204 58.2412 26.3833 57.8192 26.9334C57.3972 27.4836 56.8219 27.8964 56.1657 28.1197C55.5095 28.343 54.8019 28.3669 54.1322 28.1883C53.4624 28.0098 52.8605 27.6367 52.4024 27.1163C51.9444 26.5958 51.6506 25.9513 51.5582 25.2639C51.4965 24.8053 51.5261 24.3389 51.6452 23.8917C51.7643 23.4445 51.9705 23.0253 52.2522 22.6582C52.5338 22.2911 52.8851 21.9833 53.2861 21.7525C53.687 21.5217 54.1296 21.3725 54.5883 21.3135Z" fill="#EBEBEB"/>
<path d="M26.7488 128.905C26.9342 124.132 26.8683 119.352 26.5513 114.585C25.8452 104.742 24.345 94.9727 22.0653 85.3718C20.8118 79.9696 19.272 74.6563 17.6632 69.3479C17.6138 69.185 17.3572 69.2294 17.4016 69.3973C22.3713 88.1124 26.4477 107.42 26.1664 126.876C26.0874 132.308 25.4558 137.665 24.9425 143.077C24.9425 143.221 25.1646 143.28 25.1991 143.132C26.2207 138.485 26.5563 133.636 26.7488 128.905Z" fill="#EBEBEB"/>
<path d="M17.4021 69.3828C17.4021 69.3828 9.88096 88.4929 11.5638 92.9667C13.2467 97.4406 16.721 98.3986 16.721 98.3986C16.721 98.3986 12.1166 104.976 15.3343 111.144C18.552 117.311 25.698 117.02 26.1915 124.012C26.1767 124.047 26.5715 94.8086 17.4021 69.3828Z" fill="#EBEBEB"/>
<path d="M25.3573 111.974C25.3695 111.942 25.3695 111.907 25.3573 111.875C24.3702 98.8282 21.9235 85.9335 18.0632 73.4325C18.0632 73.398 17.9892 73.4078 17.9991 73.4325C19.4895 79.0289 20.8055 84.6484 21.9472 90.2909C20.936 89.3324 19.7007 88.6431 18.3544 88.2861C18.3544 88.2861 18.3149 88.3157 18.3544 88.3256C19.7688 88.8442 21.0405 89.6902 22.0656 90.7946C22.2828 91.9056 22.4999 93.0117 22.7022 94.1228C21.0194 92.2414 18.69 91.3081 16.3557 90.4193C16.3504 90.4216 16.3459 90.4254 16.3427 90.4302C16.3396 90.435 16.3379 90.4407 16.3379 90.4464C16.3379 90.4522 16.3396 90.4578 16.3427 90.4627C16.3459 90.4675 16.3504 90.4713 16.3557 90.4736C18.7887 91.4612 21.2069 92.7352 22.8552 94.8339C23.4277 98.0041 23.9311 101.186 24.3654 104.379C23.1503 103.105 21.5919 102.212 19.8793 101.806C19.8251 101.806 19.7954 101.871 19.8497 101.885C21.609 102.404 23.1796 103.423 24.3703 104.819H24.3999C24.548 105.938 24.6894 107.062 24.8243 108.191C23.8843 107.395 22.823 106.755 21.6807 106.295C21.6511 106.295 21.6313 106.33 21.6807 106.339C22.8464 106.845 23.914 107.552 24.8342 108.428C24.8342 108.428 24.8589 108.428 24.8737 108.428C24.9971 109.5 25.1204 110.571 25.229 111.643C23.5344 109.593 21.335 108.02 18.8479 107.08C18.8374 107.08 18.8274 107.084 18.82 107.092C18.8126 107.099 18.8084 107.109 18.8084 107.12C18.8084 107.13 18.8126 107.14 18.82 107.148C18.8274 107.155 18.8374 107.159 18.8479 107.159C21.3038 108.242 23.4611 109.904 25.1353 112.003C25.1537 112.026 25.1785 112.043 25.2067 112.052C25.2348 112.061 25.2649 112.061 25.2932 112.053C25.456 113.697 25.6041 115.341 25.7225 116.991C25.7225 117.015 25.762 117.015 25.762 116.991C25.6337 115.335 25.4988 113.662 25.3573 111.974Z" fill="white"/>
<path d="M19.3119 86.4045C17.9498 85.5562 16.3938 85.0701 14.7913 84.9922C14.7835 84.9922 14.7759 84.9953 14.7704 85.0009C14.7648 85.0064 14.7617 85.014 14.7617 85.0218C14.7617 85.0297 14.7648 85.0372 14.7704 85.0428C14.7759 85.0483 14.7835 85.0514 14.7913 85.0514C16.3406 85.3454 17.8441 85.8435 19.2626 86.5328C19.3218 86.5477 19.3662 86.444 19.3119 86.4045Z" fill="white"/>
<path d="M20.2237 106.637C19.1768 106.036 18.0241 105.642 16.8284 105.477C16.7889 105.477 16.7839 105.531 16.8284 105.541C17.996 105.775 19.1254 106.171 20.1842 106.716C20.2287 106.741 20.2681 106.662 20.2237 106.637Z" fill="white"/>
<path d="M46.5285 93.298C43.3467 95.4986 40.4246 98.053 37.818 100.912C35.1298 103.94 33.0563 107.462 31.7132 111.282C28.8547 119.241 27.3177 127.615 27.1631 136.071C27.0672 140.754 27.516 145.432 28.5005 150.011C28.5085 150.044 28.5289 150.073 28.5576 150.092C28.5864 150.11 28.6211 150.117 28.6547 150.111C28.6884 150.105 28.7182 150.086 28.7382 150.058C28.7582 150.03 28.7667 149.996 28.762 149.962C27.537 141.881 27.5836 133.659 28.9002 125.593C30.1932 117.692 32.2216 109.09 37.2455 102.665C39.9796 99.1643 43.3897 96.4138 46.7604 93.5695C46.9381 93.4115 46.7111 93.1696 46.5285 93.298Z" fill="#EBEBEB"/>
<path d="M28.2676 130.375C30.0787 127.444 32.207 124.722 34.6141 122.257C38.3796 118.489 41.548 115.813 42.0415 113.324C42.535 110.835 38.2711 108.998 38.2711 108.998C38.2711 108.998 43.4776 109.937 44.9039 107.749C46.3301 105.562 47.0161 92.8906 47.0161 92.8906C47.0161 92.8906 37.5407 99.6606 33.1237 109.151C28.7068 118.642 28.2676 130.375 28.2676 130.375Z" fill="#EBEBEB"/>
<path d="M43.6166 104.774C42.9927 104.681 42.3602 104.66 41.7314 104.71C41.6574 104.71 41.6623 104.838 41.7314 104.843C42.3532 104.843 42.98 104.814 43.6018 104.843C43.6089 104.841 43.6154 104.838 43.6205 104.832C43.6256 104.827 43.6291 104.821 43.6306 104.813C43.6321 104.806 43.6317 104.799 43.6292 104.792C43.6267 104.785 43.6224 104.779 43.6166 104.774Z" fill="white"/>
<path d="M36.8103 117.066C35.8097 117.087 34.8206 117.284 33.8887 117.649C33.8887 117.649 33.8887 117.698 33.8887 117.694C34.8757 117.461 35.8282 117.368 36.8053 117.2C36.8181 117.194 36.829 117.185 36.8368 117.174C36.8447 117.162 36.8491 117.149 36.8496 117.135C36.8501 117.121 36.8467 117.107 36.8398 117.095C36.8328 117.083 36.8226 117.073 36.8103 117.066Z" fill="white"/>
<path d="M34.7684 112.821C34.3529 112.817 33.9382 112.854 33.5296 112.929C33.5221 112.932 33.5156 112.937 33.511 112.944C33.5064 112.95 33.5039 112.958 33.5039 112.966C33.5039 112.974 33.5064 112.982 33.511 112.989C33.5156 112.995 33.5221 113 33.5296 113.003C33.9433 113.027 34.3584 113.009 34.7684 112.949C34.7854 112.949 34.8017 112.942 34.8137 112.93C34.8258 112.918 34.8325 112.902 34.8325 112.885C34.8325 112.868 34.8258 112.851 34.8137 112.839C34.8017 112.827 34.7854 112.821 34.7684 112.821Z" fill="white"/>
<path d="M0.489197 106.739C3.57325 107.786 6.52859 109.179 9.29839 110.892C12.1723 112.72 14.6646 115.087 16.6369 117.865C20.7869 123.645 23.9642 130.065 26.0433 136.871C27.2028 140.64 27.9183 144.531 28.1752 148.466C28.1698 148.491 28.1559 148.514 28.1357 148.53C28.1154 148.547 28.0902 148.556 28.0642 148.556C28.0382 148.556 28.013 148.547 27.9928 148.53C27.9725 148.514 27.9586 148.491 27.9532 148.466C27.082 141.643 25.147 135 22.2185 128.778C19.3414 122.679 15.7141 116.191 10.167 112.151C7.14668 109.954 3.75131 108.512 0.365819 106.991C0.188155 106.932 0.311533 106.68 0.489197 106.739Z" fill="#EBEBEB"/>
<path d="M23.8317 132.521C21.6876 130.569 19.336 128.859 16.8189 127.42C12.9004 125.242 9.71726 123.81 8.74504 121.909C7.77282 120.008 10.7981 117.539 10.7981 117.539C10.7981 117.539 6.8006 119.514 5.1424 118.058C3.4842 116.601 0 106.527 0 106.527C0 106.527 9.23362 109.811 14.9929 116.473C20.7522 123.134 23.8317 132.521 23.8317 132.521Z" fill="#EBEBEB"/>
<path d="M16.1671 123.248C15.2593 123.184 14.3478 123.297 13.4824 123.578C13.4824 123.578 13.4824 123.623 13.4824 123.618C14.3653 123.467 15.2572 123.374 16.1523 123.341C16.2165 123.341 16.2313 123.253 16.1671 123.248Z" fill="white"/>
<path d="M8.11245 112.679C7.69833 112.645 7.28153 112.669 6.87374 112.748C6.82932 112.748 6.84412 112.827 6.87374 112.822C7.28335 112.778 7.6831 112.793 8.08778 112.783C8.10035 112.783 8.1127 112.779 8.12272 112.772C8.13275 112.764 8.13983 112.753 8.14274 112.741C8.14565 112.729 8.14422 112.716 8.1387 112.705C8.13318 112.693 8.1239 112.684 8.11245 112.679Z" fill="white"/>
<path d="M35.7395 161.202H14.8984L17.8694 139.421L18.6294 133.836H32.0085L32.7685 139.421L35.7395 161.202Z" fill="#DBDBDB"/>
<path d="M32.7683 139.421H17.8691L18.6292 133.836H32.0083L32.7683 139.421Z" fill="#C7C7C7"/>
<path d="M33.9187 131.898H16.7148V136.629H33.9187V131.898Z" fill="#DBDBDB"/>
<path d="M119.742 179.922C118.592 180.313 85.6203 180.416 84.3569 179.636C83.8634 179.34 83.5821 174.535 83.3699 168.718C83.3254 167.464 83.2909 166.165 83.2613 164.852L80.6309 147.253L102.676 147.109L104.754 164.713L104.67 168.585C104.67 168.585 117.314 174.189 118.607 175.207C119.9 176.224 120.892 179.532 119.742 179.922Z" fill="#EB9481"/>
<path d="M119.742 179.92C118.592 180.31 85.6205 180.414 84.3571 179.634C83.7748 179.268 83.4589 172.251 83.2812 164.849L104.729 164.711L104.645 168.582C104.645 168.582 117.289 174.187 118.582 175.204C119.875 176.221 120.892 179.53 119.742 179.92Z" fill="white"/>
<path d="M119.741 179.924C118.591 180.314 85.6196 180.417 84.3562 179.637C83.8627 179.341 83.5814 174.536 83.3691 168.719L104.625 168.586C104.625 168.586 117.269 174.191 118.562 175.208C119.855 176.225 120.891 179.533 119.741 179.924Z" fill="#A6A6A6"/>
<path d="M119.262 178.605C113.735 178.486 91.4282 178.541 85.9552 178.847C85.9108 178.847 85.9108 178.877 85.9552 178.881C91.4332 179.114 113.74 178.881 119.262 178.694C119.381 178.689 119.381 178.605 119.262 178.605Z" fill="#263238"/>
<path d="M116.455 174.025C115.841 174.011 115.23 174.125 114.661 174.359C114.093 174.594 113.58 174.944 113.154 175.387C112.377 176.179 111.938 177.241 111.93 178.35C111.93 178.385 111.989 178.385 111.994 178.35C112.177 177.258 112.709 176.254 113.51 175.489C114.31 174.723 115.336 174.237 116.435 174.104C116.446 174.106 116.457 174.105 116.466 174.099C116.476 174.093 116.482 174.084 116.485 174.074C116.487 174.063 116.486 174.052 116.48 174.043C116.475 174.034 116.466 174.027 116.455 174.025Z" fill="#263238"/>
<path d="M106.786 169.126C104.576 169.101 102.014 169.891 100.642 171.708C100.593 171.777 100.692 171.851 100.756 171.817C102.687 170.797 104.722 169.985 106.826 169.397C106.858 169.388 106.887 169.368 106.905 169.34C106.924 169.311 106.931 169.277 106.926 169.244C106.921 169.21 106.904 169.18 106.879 169.158C106.853 169.136 106.82 169.125 106.786 169.126Z" fill="#263238"/>
<path d="M108.504 169.785C106.288 169.785 103.726 170.555 102.359 172.368C102.305 172.442 102.404 172.516 102.473 172.481C104.402 171.457 106.435 170.645 108.538 170.057C108.57 170.048 108.598 170.028 108.617 170C108.635 169.972 108.643 169.939 108.639 169.906C108.635 169.873 108.619 169.843 108.594 169.82C108.569 169.798 108.537 169.786 108.504 169.785Z" fill="#263238"/>
<path d="M110.212 170.445C108.001 170.445 105.44 171.211 104.068 173.028C104.019 173.097 104.117 173.171 104.182 173.137C106.113 172.116 108.148 171.305 110.252 170.717C110.284 170.708 110.312 170.688 110.331 170.659C110.349 170.631 110.357 170.597 110.352 170.564C110.347 170.53 110.33 170.5 110.305 170.478C110.279 170.456 110.246 170.445 110.212 170.445Z" fill="#263238"/>
<path d="M111.925 171.106C109.709 171.081 107.148 171.871 105.781 173.689C105.727 173.758 105.83 173.832 105.894 173.797C107.826 172.776 109.861 171.965 111.965 171.378C111.997 171.369 112.025 171.348 112.044 171.32C112.062 171.292 112.07 171.258 112.065 171.224C112.06 171.191 112.043 171.161 112.017 171.139C111.992 171.117 111.959 171.105 111.925 171.106Z" fill="#263238"/>
<path d="M87.3468 173.586C84.8792 173.586 84.8792 177.462 87.3468 177.447C89.8143 177.433 89.8341 173.571 87.3468 173.586Z" fill="#263238"/>
<path d="M109.16 163.212C108.04 162.284 106.629 163.212 105.943 164.165C104.801 165.85 104.12 167.804 103.969 169.834C103.969 169.878 104.003 169.898 104.038 169.898C104.047 169.94 104.065 169.979 104.092 170.012C104.119 170.045 104.154 170.071 104.193 170.088C104.232 170.105 104.275 170.112 104.317 170.109C104.36 170.106 104.401 170.093 104.438 170.071C106.007 168.98 107.823 168.002 109.012 166.456C109.689 165.558 110.241 164.076 109.16 163.212ZM106.466 167.923C105.706 168.481 104.921 168.999 104.181 169.587C104.576 168.481 104.916 167.365 105.42 166.298C105.652 165.787 105.919 165.292 106.219 164.817C106.713 164.081 108.864 162.224 109.091 164.629C109.22 165.948 107.369 167.261 106.466 167.923Z" fill="#263238"/>
<path d="M98.4612 170.671C100.386 170.958 102.375 170.405 104.265 170.104C104.306 170.093 104.344 170.073 104.376 170.045C104.408 170.017 104.432 169.981 104.448 169.942C104.464 169.903 104.47 169.86 104.467 169.818C104.463 169.776 104.45 169.735 104.428 169.699C104.435 169.693 104.441 169.686 104.445 169.678C104.449 169.67 104.451 169.661 104.451 169.652C104.451 169.643 104.449 169.634 104.445 169.626C104.441 169.617 104.435 169.61 104.428 169.605C102.909 168.25 101.061 167.318 99.0682 166.904C97.9035 166.682 96.2551 167.002 96.1071 168.449C95.9294 169.812 97.3359 170.494 98.4612 170.671ZM97.1188 169.417C95.6383 167.521 98.4661 167.358 99.3149 167.556C99.8656 167.693 100.406 167.868 100.934 168.079C102.013 168.527 103.069 169.029 104.097 169.585C103.159 169.679 102.237 169.847 101.304 169.975C100.188 170.123 97.9479 170.459 97.1188 169.417Z" fill="#263238"/>
<path d="M48.2168 65.9062C48.2168 65.9062 73.8153 109.479 74.5013 112.541C75.5524 117.242 81.1242 163.664 81.1242 163.664L107.774 163.17C107.774 163.17 103.184 122.239 98.8364 108.753C95.7075 99.0403 73.1145 66.8247 73.1145 66.8247L48.2168 65.9062Z" fill="#37474F"/>
<path d="M105.35 159.102C101.525 159.072 87.9685 158.919 82.8754 159.393C82.836 159.393 82.8409 159.462 82.8754 159.467C84.6274 159.719 101.52 159.329 105.345 159.205C105.353 159.208 105.362 159.209 105.37 159.208C105.378 159.207 105.387 159.204 105.394 159.2C105.401 159.195 105.407 159.189 105.411 159.181C105.415 159.174 105.417 159.165 105.418 159.157C105.418 159.148 105.417 159.14 105.413 159.132C105.41 159.124 105.404 159.118 105.398 159.112C105.391 159.107 105.383 159.103 105.375 159.101C105.367 159.099 105.358 159.1 105.35 159.102Z" fill="#263238"/>
<path d="M52.5839 69.9087C54.2619 72.5407 56.0385 75.1183 57.7461 77.7305C59.4536 80.3427 61.1711 82.9549 62.8638 85.5622C66.2394 90.8294 69.5295 96.1312 72.7341 101.468C74.298 103.941 75.6359 106.551 76.7315 109.265C77.7316 111.979 78.4832 114.779 78.977 117.63C79.5001 120.489 79.8456 123.377 80.1663 126.266C80.4954 129.338 80.8392 132.411 81.1978 135.485C81.8986 141.776 82.601 148.068 83.3051 154.359C83.389 155.129 83.4729 155.899 83.5518 156.674C83.5518 156.788 83.3594 156.808 83.3446 156.674C82.5599 150.428 81.9084 144.157 81.1978 137.91C80.8425 134.792 80.4888 131.677 80.1367 128.562C79.8061 125.664 79.4902 122.76 79.0411 119.881C78.629 117.04 78.0021 114.233 77.1658 111.487C76.2443 108.643 75.0095 105.91 73.4842 103.339C70.3997 98.0109 67.1327 92.7766 63.8656 87.5374C60.5986 82.2982 57.2427 77.0145 53.798 71.8395C53.3736 71.2025 52.9442 70.5655 52.5 69.9383C52.4655 69.9038 52.5543 69.8593 52.5839 69.9087Z" fill="#263238"/>
<path d="M56.6063 182.49C55.3923 182.416 24.0345 169.705 23.1659 168.5C23.1272 168.429 23.1101 168.349 23.1166 168.268C23.1166 167.187 25.293 163.414 27.1091 158.456C27.2226 158.14 28.032 156.669 29.1522 154.689C32.2663 149.262 37.6949 139.914 37.6949 139.914L58.1905 148.062L48.3795 162.752L46.8545 166.308C46.8545 166.308 56.4731 176.258 57.2824 177.665C58.0918 179.072 57.8154 182.559 56.6063 182.49Z" fill="#EB9481"/>
<path d="M56.6063 182.489C55.3923 182.414 24.0345 169.704 23.1659 168.499C23.1272 168.428 23.1101 168.348 23.1166 168.267C23.1166 167.186 25.293 163.413 27.1091 158.455C27.2226 158.139 28.032 156.668 29.1522 154.688L48.3992 162.751L46.8743 166.307C46.8743 166.307 56.4928 176.257 57.3022 177.664C58.1115 179.071 57.8154 182.558 56.6063 182.489Z" fill="white"/>
<path d="M56.6065 182.49C55.3924 182.416 24.0346 169.706 23.166 168.501C22.8305 168.042 24.232 163.76 27.1141 158.457L46.8546 166.313C46.8546 166.313 56.4732 176.254 57.2875 177.671C58.1018 179.088 57.8156 182.559 56.6065 182.49Z" fill="#A6A6A6"/>
<path d="M56.6563 181.088C51.5781 178.906 30.8802 170.58 25.6934 168.813C25.6489 168.813 25.6391 168.812 25.6934 168.842C30.6828 171.114 51.4448 179.271 56.6366 181.187C56.7353 181.212 56.7649 181.133 56.6563 181.088Z" fill="#263238"/>
<path d="M55.7667 175.789C55.2036 175.542 54.5952 175.414 53.9802 175.414C53.3651 175.414 52.7568 175.542 52.1937 175.789C51.1812 176.233 50.3787 177.05 49.9531 178.071C49.9531 178.1 49.9975 178.125 50.0124 178.095C50.5941 177.149 51.4669 176.416 52.4999 176.007C53.5329 175.599 54.6705 175.536 55.742 175.829C55.7503 175.827 55.7575 175.821 55.762 175.814C55.7666 175.807 55.7682 175.798 55.7667 175.789Z" fill="#263238"/>
<path d="M48.6465 167.622C46.6083 166.768 43.9334 166.54 41.984 167.711C41.91 167.755 41.984 167.859 42.0482 167.854C44.2213 167.633 46.4117 167.645 48.5823 167.889C48.6157 167.892 48.6493 167.884 48.6768 167.864C48.7042 167.845 48.7237 167.816 48.7316 167.783C48.7395 167.751 48.7352 167.716 48.7195 167.687C48.7038 167.657 48.6779 167.634 48.6465 167.622Z" fill="#263238"/>
<path d="M49.9843 168.876C47.9461 168.022 45.2713 167.794 43.3219 168.965C43.2479 169.009 43.3219 169.113 43.3861 169.108C45.5591 168.885 47.7497 168.896 49.9202 169.142C49.9536 169.146 49.9872 169.137 50.0147 169.118C50.0421 169.099 50.0616 169.07 50.0695 169.037C50.0774 169.005 50.073 168.97 50.0574 168.941C50.0417 168.911 50.0157 168.888 49.9843 168.876Z" fill="#263238"/>
<path d="M51.3265 170.13C49.2834 169.275 46.6085 169.048 44.6641 170.219C44.5851 170.263 44.6641 170.367 44.7233 170.362C46.8963 170.139 49.0869 170.15 51.2574 170.396C51.2915 170.402 51.3265 170.395 51.3555 170.376C51.3845 170.357 51.4053 170.328 51.414 170.295C51.4227 170.261 51.4185 170.226 51.4023 170.195C51.3861 170.165 51.3591 170.141 51.3265 170.13Z" fill="#263238"/>
<path d="M52.6624 171.384C50.6193 170.53 47.9494 170.303 46 171.468C45.9211 171.518 46 171.621 46.0592 171.616C48.2322 171.393 50.4229 171.405 52.5933 171.651C52.6274 171.657 52.6624 171.649 52.6914 171.631C52.7204 171.612 52.7413 171.583 52.75 171.549C52.7586 171.516 52.7544 171.48 52.7382 171.45C52.722 171.419 52.695 171.396 52.6624 171.384Z" fill="#263238"/>
<path d="M28.9503 164.458C26.6456 163.539 25.2144 167.129 27.529 168.048C29.8436 168.966 31.2797 165.376 28.9503 164.458Z" fill="#263238"/>
<path d="M53.0629 163.03C52.367 161.751 50.7236 162.067 49.7218 162.704C48.0342 163.835 46.6728 165.39 45.7737 167.212C45.7698 167.22 45.7677 167.229 45.7676 167.238C45.7675 167.247 45.7694 167.256 45.7732 167.264C45.777 167.272 45.7826 167.279 45.7895 167.285C45.7964 167.29 45.8045 167.294 45.8132 167.296C45.8132 167.459 45.9218 167.652 46.1142 167.612C47.9847 167.183 50.0327 166.961 51.7107 165.973C52.673 165.4 53.7193 164.24 53.0629 163.03ZM48.794 166.383C47.881 166.615 46.9631 166.803 46.06 167.069C46.807 166.169 47.5993 165.307 48.4338 164.487C48.8446 164.095 49.2815 163.732 49.7416 163.4C50.4572 162.906 53.1616 161.993 52.4707 164.309C52.0907 165.588 49.8847 166.106 48.794 166.383Z" fill="#263238"/>
<path d="M40.3449 165.929C42.0229 166.916 44.071 167.148 45.9364 167.583C46.1289 167.627 46.2572 167.435 46.2424 167.267C46.2517 167.266 46.2605 167.262 46.2681 167.257C46.2757 167.252 46.2818 167.244 46.2857 167.236C46.2897 167.227 46.2914 167.218 46.2908 167.209C46.2901 167.2 46.287 167.191 46.2819 167.183C45.3842 165.357 44.0227 163.798 42.3338 162.665C41.3468 162.023 39.6935 161.702 38.9927 162.976C38.2919 164.25 39.3629 165.351 40.3449 165.929ZM39.5751 164.259C38.8891 161.944 41.5886 162.862 42.3042 163.361C42.7637 163.693 43.1991 164.058 43.6071 164.452C44.44 165.274 45.2306 166.137 45.9759 167.04C45.0728 166.773 44.1549 166.58 43.2419 166.348C42.1364 166.052 39.9501 165.558 39.5751 164.259Z" fill="#263238"/>
<path d="M49.9727 161.932L27.0293 152.663C27.0293 152.663 55.4754 110.813 55.6826 107.698C55.8702 104.942 43.3744 80.9336 42.8859 73.9364C42.3529 66.3813 45.9851 60.5396 49.9826 56.9102L73.6465 66.9788C73.6465 66.9788 71.1493 70.9736 67.2308 73.2007C67.2308 73.2007 79.3663 100.952 78.6754 109.485C77.9845 118.018 49.9727 161.932 49.9727 161.932Z" fill="#37474F"/>
<path d="M50.991 157.566C47.6746 156.139 48.6468 156.499 45.3107 155.097C43.6821 154.415 32.9728 149.956 31.3245 149.586C31.29 149.586 31.2653 149.635 31.2998 149.655C32.7261 150.529 43.5241 154.8 45.1675 155.452C48.5284 156.776 47.5759 156.361 50.9515 157.645C50.9566 157.652 50.9632 157.657 50.9709 157.66C50.9786 157.664 50.987 157.665 50.9954 157.664C51.0038 157.664 51.0118 157.661 51.0188 157.656C51.0257 157.651 51.0314 157.645 51.0351 157.637C51.0389 157.63 51.0407 157.621 51.0403 157.613C51.0399 157.605 51.0374 157.596 51.033 157.589C51.0286 157.582 51.0224 157.576 51.015 157.572C51.0077 157.568 50.9994 157.566 50.991 157.566Z" fill="#263238"/>
<path d="M71.1098 72.6916C68.6461 73.2662 66.2357 74.0492 63.9045 75.0322C63.8951 75.0355 63.8865 75.0405 63.879 75.0471C63.8716 75.0537 63.8655 75.0617 63.8612 75.0707C63.8568 75.0796 63.8543 75.0893 63.8537 75.0992C63.8531 75.1092 63.8544 75.1191 63.8577 75.1285C63.8609 75.1379 63.866 75.1466 63.8725 75.154C63.8791 75.1615 63.8871 75.1676 63.8961 75.1719C63.905 75.1763 63.9147 75.1788 63.9246 75.1794C63.9346 75.18 63.9445 75.1787 63.9539 75.1754C66.3721 74.4693 68.8298 73.8076 71.2085 72.9731C71.3911 72.9089 71.2974 72.6521 71.1098 72.6916Z" fill="#263238"/>
<path d="M68.2929 71.7337C68.063 72.1429 67.8602 72.5669 67.6859 73.0028C67.5156 73.3336 67.41 73.6939 67.375 74.0644C67.375 74.1385 67.4737 74.1533 67.5181 74.1089C67.7657 73.8125 67.9655 73.4793 68.1103 73.1213C68.3127 72.7312 68.52 72.346 68.7124 71.946C68.8457 71.6547 68.4459 71.467 68.2929 71.7337Z" fill="#263238"/>
<path d="M68.5882 69.4921C68.7362 69.1267 68.8793 68.7662 69.0323 68.4008C69.1853 68.0354 69.3778 67.6601 69.5259 67.2749C69.5259 67.2157 69.6443 67.2749 69.6196 67.3194C69.4716 67.6848 69.3778 68.0699 69.2643 68.4452C69.1508 68.8205 69.0225 69.1958 68.8991 69.5711C68.6671 70.2674 68.4056 70.9587 68.0848 71.6352C68.4731 71.6546 68.8609 71.5871 69.2199 71.4377C69.5865 71.2029 69.8684 70.8568 70.0243 70.4501C70.2316 70.0452 70.424 69.6304 70.6363 69.2254C70.8975 68.7877 71.1172 68.3264 71.2926 67.8477C71.2926 67.7885 71.4111 67.8477 71.3864 67.8922C71.0646 68.9043 70.643 69.8819 70.1279 70.8105C69.9059 71.171 69.7331 71.5512 69.3284 71.6895C68.8904 71.8121 68.432 71.844 67.9812 71.7833C67.9219 71.7833 67.8528 71.7833 67.8726 71.6944C68.0746 70.949 68.3135 70.214 68.5882 69.4921Z" fill="#263238"/>
<path d="M67.5825 74.1041C68.4264 75.8867 69.1667 77.6644 69.9514 79.4421C70.7361 81.2198 71.4319 82.9382 72.1376 84.706C73.5491 88.2713 74.8125 91.9056 75.9229 95.5696C76.4707 97.3868 76.979 99.2188 77.433 101.066C77.9331 102.907 78.2993 104.781 78.5286 106.675C78.7267 108.566 78.5591 110.477 78.0351 112.305C77.4909 114.111 76.7924 115.867 75.9476 117.554C75.4294 118.62 75.2566 118.477 75.5034 117.939C76.2091 116.408 78.0598 111.771 77.9266 107.875C77.8186 106.01 77.531 104.159 77.0678 102.35C76.6368 100.483 76.1516 98.6312 75.612 96.7943C74.5608 93.1698 73.3122 89.6193 72.0291 86.0738C71.3086 84.0986 70.5485 82.1234 69.8083 80.1482C69.068 78.173 68.3277 76.3558 67.4986 74.1732C67.474 74.0844 67.5579 74.0498 67.5825 74.1041Z" fill="#263238"/>
<path d="M50.1651 68.2129C50.5747 68.0598 51.1521 68.3116 51.5667 68.3808C52.1035 68.4719 52.646 68.5264 53.1903 68.5437C53.7288 68.5627 54.268 68.5445 54.8041 68.4894C55.3439 68.4754 55.873 68.3351 56.3488 68.0795C57.1294 67.5105 57.7986 66.8024 58.3228 65.9907C58.9475 65.1613 59.4633 64.2552 59.8577 63.2946C59.8577 63.2353 59.9613 63.2946 59.9416 63.3341C59.7688 63.8822 59.6405 64.4353 59.448 64.9735C59.2353 65.4792 58.9811 65.9665 58.688 66.4302C58.2129 67.3635 57.5102 68.1617 56.6449 68.7511C55.6924 69.2943 54.4685 69.2449 53.4074 69.2005C52.7921 69.1645 52.1801 69.0837 51.5765 68.9585C51.1422 68.8647 50.4118 68.7955 50.1355 68.4153C50.1225 68.4008 50.1128 68.3835 50.1072 68.3649C50.1016 68.3462 50.1001 68.3265 50.103 68.3072C50.1058 68.2878 50.1128 68.2694 50.1235 68.2531C50.1343 68.2368 50.1485 68.2231 50.1651 68.2129Z" fill="#263238"/>
<path d="M33.5796 148.275C37.3501 142.56 41.0514 136.799 44.6836 130.992C48.3159 125.185 51.8988 119.333 55.4323 113.437C56.2763 112.03 57.2485 110.627 57.7913 109.067C58.3836 107.373 58.048 105.729 57.515 104.07C56.5085 101.043 55.3321 98.0754 53.9913 95.1813C52.6687 92.263 51.2424 89.394 49.8409 86.5151C48.4393 83.6363 46.9735 80.792 45.8928 77.7897C44.9057 74.9207 44.506 71.948 45.2759 68.9753C46.0457 66.0026 47.7039 63.3756 49.4362 60.9017C49.8902 60.2499 50.359 59.603 50.818 58.9265C50.8525 58.8771 50.9266 58.9265 50.892 58.9857C48.9821 61.5634 47.1216 64.2941 46.0013 67.3211C45.4288 68.8131 45.1085 70.3902 45.0538 71.9875C45.0444 73.6089 45.2961 75.2212 45.799 76.7626C46.7268 79.7649 48.1925 82.6042 49.5595 85.4288C50.9266 88.2533 52.3874 91.1766 53.7347 94.0851C55.1246 97.0123 56.3601 100.011 57.436 103.067C57.895 104.425 58.423 105.847 58.3836 107.304C58.349 108.899 57.589 110.336 56.7994 111.679C53.3448 117.531 49.8063 123.313 46.2037 129.061C42.601 134.809 38.8947 140.557 35.144 146.245L33.7227 148.393C33.6487 148.482 33.5204 148.379 33.5796 148.275Z" fill="#263238"/>
<path d="M74.9603 40.3643C77.0973 45.0554 87.8904 51.5193 92.9439 52.2155C96.5762 52.7093 107.621 52.8871 111.406 52.3094C115.848 51.6279 112.452 39.6532 109.832 39.9643C102.627 40.8038 96.5071 41.742 94.5824 41.742C92.2333 41.742 79.5253 37.6632 77.9954 37.0855C74.2448 35.688 73.7512 37.7027 74.9603 40.3643Z" fill="#EB9481"/>
<path d="M75.0288 41.6149C77.7332 45.6196 86.7201 52.1674 86.7201 52.1674L87.9687 49.4021L92.0994 40.2569C92.0994 40.2569 83.8429 37.6645 78.4093 36.4793C77.7699 36.3337 77.1196 36.2412 76.4649 36.2028C72.9955 36.0152 72.6945 38.1583 75.0288 41.6149Z" fill="#F19B6C"/>
<path d="M75.0288 41.614C77.7332 45.6187 86.7201 52.1665 86.7201 52.1665L87.9687 49.4012C84.6177 45.5051 79.4408 39.6042 76.4649 36.2118C72.9955 36.0143 72.6945 38.1574 75.0288 41.614Z" fill="#263238"/>
<path d="M85.1023 50.3097C85.7883 48.6259 88.8382 41.846 89.5982 40.4337C89.6475 40.3349 89.7265 40.3448 89.6821 40.4337C88.3591 43.8053 86.8533 47.1022 85.1714 50.3097C85.1516 50.369 85.0727 50.3492 85.1023 50.3097Z" fill="#263238"/>
<path d="M108.51 40.0891C112.892 39.5163 118.316 38.5336 122.91 40.4841C123.427 40.6867 123.859 41.0572 124.139 41.5359C126.212 42.3754 126.439 43.6049 126.439 43.6049C128.132 44.9777 128.191 46.2715 128.191 46.2715C128.191 46.2715 130.619 47.2591 130.249 48.8491C129.844 50.607 126.518 48.8491 124.1 48.9923C118.548 49.338 110.775 51.3774 109.171 51.6341L108.51 40.0891Z" fill="#EB9481"/>
<path d="M118.028 45.2621C119.651 45.151 121.28 45.151 122.904 45.2621C124.672 45.4841 126.42 45.8389 128.135 46.3238C128.146 46.3277 128.158 46.3271 128.169 46.322C128.18 46.3169 128.188 46.3078 128.192 46.2966C128.196 46.2855 128.195 46.2733 128.19 46.2626C128.185 46.252 128.176 46.2438 128.165 46.2398C124.944 44.9753 121.437 44.62 118.028 45.2127C117.949 45.2029 117.949 45.2671 118.028 45.2621Z" fill="#263238"/>
<path d="M116.998 40.1302C119.707 40.2685 121.4 40.703 124.124 41.5228V41.4931C121.123 40.2389 119.895 40.1204 116.983 40.0117C116.889 40.0512 116.894 40.1302 116.998 40.1302Z" fill="#263238"/>
<path d="M117.436 49.8281C116.731 50.159 116.903 50.5293 118.251 50.8404C119.598 51.1515 125.199 51.2453 125.002 53.2008C124.804 55.1562 116.903 54.9093 114.697 54.218C112.491 53.5267 109.17 51.6305 109.17 51.6305C110.734 51.3688 114.406 50.3762 117.436 49.8281Z" fill="#EB9481"/>
<path d="M80.8287 47.8397C80.7941 48.6841 80.7152 49.5433 80.5967 50.3976C80.5967 50.363 80.5967 50.3334 80.6313 50.3038C80.7941 49.8593 80.957 49.405 81.1544 48.9754C81.1544 48.9754 81.2037 48.9754 81.1988 48.9754C81.1039 49.4462 80.9618 49.9061 80.7744 50.3482C80.6855 50.5605 80.6017 50.7679 80.5079 50.9753C80.4487 51.3556 80.3796 51.7308 80.3055 52.1061C80.1575 52.8123 79.4912 55.8146 79.3185 56.3232C79.2889 56.4269 79.1606 56.4022 79.1705 56.2837C79.205 55.7306 79.7627 52.6049 79.8762 51.8938C80.0967 50.5208 80.3916 49.1609 80.7596 47.8199C80.7842 47.7953 80.8336 47.815 80.8287 47.8397Z" fill="#263238"/>
<path d="M75.6952 70.2924C74.3775 70.9689 72.6799 72.0207 65.0304 70.5146C64.5369 70.4158 64.073 70.2973 63.5894 70.1541C56.4186 68.0012 47.797 59.5621 47.3281 58.9646C47.3281 58.9646 58.7233 40.4816 73.2967 34.6696C75.0981 33.9536 78.0789 35.3362 79.7124 37.0596C80.2997 37.6768 81.5779 42.2149 81.0893 45.8888C80.6007 49.5626 77.008 69.6159 75.6952 70.2924Z" fill="#F19B6C"/>
<path d="M74.668 45.7227C74.723 46.5037 74.6137 47.2876 74.3472 48.0238C74.2846 47.2425 74.3941 46.457 74.668 45.7227Z" fill="white"/>
<path d="M69.6985 58.3086C69.7299 58.6973 69.7167 59.0883 69.659 59.474C69.6115 59.8625 69.5171 60.2439 69.3777 60.6097C69.3437 60.2194 69.357 59.8265 69.4172 59.4394C69.4677 59.053 69.562 58.6736 69.6985 58.3086Z" fill="white"/>
<path d="M61.2554 48.793C61.3115 49.574 61.2022 50.3582 60.9347 51.0941C60.873 50.3128 60.9825 49.5275 61.2554 48.793Z" fill="white"/>
<path d="M77.9212 57.668C77.9527 58.0583 77.9394 58.451 77.8817 58.8383C77.8342 59.2269 77.7397 59.6082 77.6004 59.974C77.5664 59.5837 77.5797 59.1908 77.6399 58.8037C77.6897 58.4156 77.7841 58.0345 77.9212 57.668Z" fill="white"/>
<path d="M67.0781 47.1629C67.4664 47.1298 67.8572 47.1414 68.2428 47.1975C68.6313 47.2467 69.0125 47.3429 69.3779 47.4839C68.5973 47.54 67.8136 47.4306 67.0781 47.1629Z" fill="white"/>
<path d="M57.4941 56.2561C58.2747 56.201 59.0582 56.3103 59.7939 56.577C59.0131 56.6396 58.228 56.5301 57.4941 56.2561Z" fill="white"/>
<path d="M68.7871 66.0963C69.5677 66.0402 70.3514 66.1496 71.0869 66.4173C70.3061 66.4789 69.5212 66.3694 68.7871 66.0963Z" fill="white"/>
<path d="M54.5391 62.5217C55.3196 62.4666 56.1031 62.576 56.8388 62.8427C56.058 62.9043 55.2732 62.7948 54.5391 62.5217Z" fill="white"/>
<path d="M74.5957 36.8732C75.3763 36.8182 76.1597 36.9275 76.8955 37.1942C76.1149 37.2493 75.3314 37.1399 74.5957 36.8732Z" fill="white"/>
<path d="M71.8066 40.0234C71.5571 40.3235 71.272 40.5922 70.9577 40.8234C70.6519 41.06 70.3209 41.2621 69.9707 41.4258C70.2186 41.1277 70.5001 40.8592 70.8097 40.6259C71.1184 40.3884 71.4528 40.1863 71.8066 40.0234Z" fill="white"/>
<path d="M56.6103 48.9766C56.3578 49.2741 56.0712 49.5409 55.7566 49.7716C55.4539 50.0127 55.1223 50.215 54.7695 50.374C55.0234 50.0778 55.3098 49.8111 55.6233 49.579C55.9267 49.3389 56.2582 49.1367 56.6103 48.9766Z" fill="white"/>
<path d="M75.5869 53.0156C75.3344 53.3147 75.0479 53.5831 74.7331 53.8156C74.4297 54.0556 74.0983 54.2579 73.7461 54.418C73.9986 54.119 74.2851 53.8505 74.5999 53.6181C74.905 53.3804 75.2361 53.1783 75.5869 53.0156Z" fill="white"/>
<path d="M63.2978 60.7578C63.0454 61.0568 62.7588 61.3253 62.4441 61.5578C62.1401 61.7971 61.8088 61.9994 61.457 62.1602C61.7095 61.8612 61.996 61.5927 62.3108 61.3603C62.6159 61.1226 62.947 60.9205 63.2978 60.7578Z" fill="white"/>
<path d="M80.2959 42.4375C80.0434 42.7365 79.7569 43.005 79.4421 43.2375C79.1363 43.4741 78.8053 43.6761 78.4551 43.8399C78.7075 43.5409 78.9941 43.2724 79.3089 43.0399C79.6128 42.8006 79.9441 42.5984 80.2959 42.4375Z" fill="white"/>
<path d="M80.0383 51.4083C79.7394 51.1557 79.4711 50.869 79.2388 50.554C78.9986 50.2506 78.7964 49.9189 78.6367 49.5664C78.9366 49.816 79.2051 50.1012 79.4362 50.4157C79.672 50.724 79.8738 51.0567 80.0383 51.4083Z" fill="white"/>
<path d="M52.6477 57.5919C52.3488 57.3393 52.0805 57.0526 51.8482 56.7376C51.6107 56.4323 51.4087 56.101 51.2461 55.75C51.545 56.0026 51.8133 56.2893 52.0456 56.6043C52.2848 56.9084 52.4869 57.2399 52.6477 57.5919Z" fill="white"/>
<path d="M76.7063 64.9463C76.4063 64.6967 76.1379 64.4115 75.9068 64.097C75.6703 63.791 75.4684 63.4598 75.3047 63.1094C75.6035 63.362 75.8719 63.6487 76.1042 63.9636C76.3423 64.2667 76.5444 64.5965 76.7063 64.9463Z" fill="white"/>
<path d="M64.6496 43.9815C64.3509 43.7306 64.0825 43.4455 63.8501 43.1321C63.6147 42.8255 63.4128 42.4944 63.248 42.1445C63.548 42.3942 63.8164 42.6794 64.0475 42.9939C64.283 43.3005 64.4849 43.6316 64.6496 43.9815Z" fill="white"/>
<path d="M64.8625 69.1309C64.5637 68.8783 64.2953 68.5916 64.063 68.2767C63.8263 67.9709 63.6243 67.6396 63.4609 67.2891C63.7609 67.5387 64.0293 67.8239 64.2604 68.1384C64.4979 68.4455 64.6999 68.7784 64.8625 69.1309Z" fill="white"/>
<path d="M66.9103 54.2989C66.6143 54.0449 66.3477 53.7583 66.1158 53.4446C65.8748 53.1418 65.6726 52.81 65.5137 52.457C65.811 52.7097 66.0777 52.9964 66.3082 53.3113C66.5481 53.6149 66.7503 53.9465 66.9103 54.2989Z" fill="white"/>
<path d="M77.0425 41.9845C75.182 41.6388 73.435 37.7921 73.2129 35.2046C73.2129 35.0268 74.0815 33.6195 75.0734 31.8566C75.6755 30.7851 76.3121 29.5752 76.8205 28.4296C76.9241 28.1975 77.5311 28.9827 77.5311 28.9827L78.8537 29.9703L83.2213 33.3232C82.1813 34.5719 81.2979 35.9434 80.5909 37.4069C80.5211 37.5655 80.4682 37.731 80.433 37.9007C80.431 37.9287 80.431 37.9567 80.433 37.9847C80.1615 38.9624 78.834 42.3153 77.0425 41.9845Z" fill="#EB9481"/>
<path d="M80.4334 37.9252C80.4314 37.9531 80.4314 37.9812 80.4334 38.0091C80.1741 37.9331 79.9215 37.8356 79.6783 37.7178C74.8962 35.4759 77.0035 29.0664 77.0035 29.0664L78.8788 29.9948L83.2464 33.3477C82.2064 34.5964 81.323 35.9679 80.616 37.4314C80.5377 37.589 80.4765 37.7546 80.4334 37.9252Z" fill="#263238"/>
<path d="M88.2402 19.6797C88.2402 19.6797 90.4265 21.0673 90.4364 23.5363C90.4462 26.0053 89.4493 28.42 89.2421 28.5088C89.0348 28.5977 88.2402 19.6797 88.2402 19.6797Z" fill="#263238"/>
<path d="M77.3927 20.9622C76.08 23.5547 76.1491 31.7271 77.7875 33.8307C80.1662 36.8824 84.746 37.9341 87.5146 34.917C90.1944 31.9937 89.918 21.3474 88.0082 19.3623C85.2297 16.4291 79.3371 17.1254 77.3927 20.9622Z" fill="#EB9481"/>
<path d="M84.3605 27.5039C84.3605 27.5039 84.3161 27.5335 84.321 27.5533C84.3506 28.1113 84.2914 28.7532 83.793 28.9507C83.793 28.9507 83.793 28.9853 83.793 28.9804C84.4099 28.8816 84.4789 28.0273 84.3605 27.5039Z" fill="#263238"/>
<path d="M83.8535 26.9385C82.9554 26.8891 82.9257 28.6866 83.7598 28.731C84.5938 28.7754 84.6037 26.978 83.8535 26.9385Z" fill="#263238"/>
<path d="M87.4057 27.4844C87.4057 27.4844 87.4501 27.4844 87.4501 27.5338C87.4205 28.0917 87.4847 28.7337 87.988 28.9263C87.988 28.9263 87.988 28.9608 87.988 28.9559C87.3662 28.8621 87.2922 28.0078 87.4057 27.4844Z" fill="#263238"/>
<path d="M87.9141 26.9114C88.8073 26.857 88.8517 28.6545 88.0226 28.7039C87.1935 28.7532 87.1639 26.9558 87.9141 26.9114Z" fill="#263238"/>
<path d="M83.2912 25.5686C83.527 25.5014 83.7593 25.4223 83.987 25.3315C84.2462 25.2846 84.4824 25.1525 84.6582 24.9563C84.7009 24.8844 84.7187 24.8004 84.7089 24.7174C84.699 24.6344 84.6622 24.5569 84.6039 24.497C84.4704 24.3954 84.3121 24.3313 84.1456 24.3114C83.979 24.2914 83.8101 24.3163 83.6564 24.3834C83.3234 24.4727 83.0351 24.682 82.847 24.9711C82.8095 25.0398 82.7924 25.118 82.7979 25.1961C82.8033 25.2743 82.8311 25.3493 82.8778 25.4122C82.9246 25.4751 82.9884 25.5232 83.0616 25.5509C83.1349 25.5787 83.2145 25.5848 83.2912 25.5686Z" fill="#263238"/>
<path d="M88.527 26.3659C88.2869 26.3122 88.0497 26.2463 87.8163 26.1684C87.5563 26.134 87.315 26.0141 87.1304 25.8277C87.0828 25.759 87.0598 25.6763 87.0652 25.5929C87.0706 25.5095 87.104 25.4304 87.16 25.3684C87.2872 25.2596 87.4415 25.187 87.6065 25.1583C87.7715 25.1296 87.9411 25.1459 88.0976 25.2055C88.4352 25.2755 88.7345 25.4692 88.9366 25.7487C88.9789 25.8148 89.0011 25.8918 89.0004 25.9703C88.9997 26.0488 88.9763 26.1255 88.9329 26.1909C88.8894 26.2563 88.828 26.3076 88.7559 26.3387C88.6839 26.3698 88.6043 26.3793 88.527 26.3659Z" fill="#263238"/>
<path d="M83.0973 32.7852C83.2305 32.9185 83.3588 33.0963 83.5612 33.116C83.7686 33.1159 83.9738 33.0722 84.1633 32.9876C84.1633 32.9876 84.1978 32.9876 84.1633 33.0173C84.0824 33.1258 83.9735 33.2103 83.8483 33.2616C83.7231 33.3129 83.5863 33.3292 83.4526 33.3086C83.3399 33.2779 83.2386 33.2147 83.1614 33.1269C83.0842 33.0391 83.0345 32.9306 83.0183 32.8148C83.0144 32.8043 83.0148 32.7927 83.0194 32.7825C83.024 32.7724 83.0325 32.7644 83.043 32.7605C83.0535 32.7566 83.0651 32.757 83.0752 32.7616C83.0854 32.7662 83.0933 32.7747 83.0973 32.7852Z" fill="#263238"/>
<path d="M86.3261 30.4047C86.3261 30.4047 86.3508 31.2343 86.3261 31.6244C85.5678 31.5439 84.8019 31.5705 84.051 31.7034C83.8733 31.7429 83.8931 31.5997 84.0954 31.5059C84.7003 31.2293 85.374 31.1398 86.03 31.2491C86.0695 31.1454 85.9658 29.9652 86.03 29.9702C86.3285 30.0288 86.6175 30.1285 86.8887 30.2664C86.8887 28.5283 86.6123 26.8098 86.637 25.0717C86.637 25.0124 86.7308 25.0025 86.7406 25.0717C87.0914 26.9104 87.2567 28.7798 87.2342 30.6516C87.2391 30.8639 86.4741 30.4837 86.3261 30.4047Z" fill="#263238"/>
<path d="M85.216 31.3276C85.0193 31.8454 84.6543 32.2819 84.1796 32.567C83.4344 32.8682 83.1926 32.1917 83.9428 31.5794C84.3362 31.3805 84.7766 31.2934 85.216 31.3276Z" fill="#263238"/>
<path d="M84.4406 32.4138C84.3618 32.4779 84.2735 32.5296 84.179 32.5668C83.493 32.8434 83.2216 32.2952 83.7743 31.7422C84.1494 31.7718 84.5787 31.9101 84.4406 32.4138Z" fill="#FF99BA"/>
<path d="M77.0178 27.9497C77.9209 28.2262 78.9573 25.5103 79.2534 24.4931C79.51 23.5746 79.8061 20.6562 79.8505 20.4538C79.895 20.2513 83.7986 23.0364 86.0589 22.3747C88.3192 21.713 89.854 19.6637 89.8886 18.7107C89.9231 17.7576 87.0953 15.338 84.6524 15.2145C82.2095 15.0911 78.8981 18.1774 78.8981 18.1774C79.2981 17.7232 79.6611 17.2377 79.9838 16.7256C79.9443 16.6169 78.3651 17.249 78.0739 18.3749C78.0739 18.3749 78.3898 16.9577 78.2713 16.933C78.1529 16.9083 76.924 18.1181 77.2004 19.0366C77.2004 19.0366 75.7791 20.2661 75.6508 21.6142C75.5224 22.9623 75.9567 27.6238 77.0178 27.9497Z" fill="#263238"/>
<path d="M87.6782 21.8628C87.006 22.2275 86.282 22.4872 85.5314 22.6331C84.6888 22.7083 83.8408 22.5726 83.0638 22.2381C82.281 21.9355 81.5539 21.505 80.9121 20.9641C80.3446 20.4999 79.8363 19.932 79.2292 19.5172C79.0762 19.4086 78.9035 19.6308 78.9973 19.7691C80.01 21.2004 81.4568 22.267 83.123 22.8109C83.8969 23.0634 84.7231 23.1105 85.5206 22.9478C86.3182 22.7851 87.0599 22.418 87.6732 21.8825C87.6732 21.8825 87.688 21.8628 87.6782 21.8628Z" fill="#263238"/>
<path d="M77.9615 27.7087C77.9615 27.7087 76.5599 24.8644 75.2965 25.3236C74.0331 25.7828 74.803 29.7184 76.1009 30.4394C76.2599 30.5423 76.438 30.612 76.6246 30.6444C76.8112 30.6768 77.0024 30.6711 77.1867 30.6278C77.3711 30.5845 77.5448 30.5043 77.6974 30.3922C77.85 30.28 77.9785 30.1382 78.075 29.9752L77.9615 27.7087Z" fill="#EB9481"/>
<path d="M75.5464 26.4453C75.5464 26.4453 75.5168 26.4453 75.5464 26.4848C76.4446 27.0181 76.8098 27.9662 77.0269 28.9538C76.986 28.8493 76.9229 28.7549 76.842 28.6771C76.7611 28.5993 76.6642 28.5401 76.5581 28.5035C76.4521 28.4669 76.3393 28.4537 76.2277 28.465C76.1161 28.4762 76.0082 28.5116 75.9116 28.5687C75.882 28.5687 75.9116 28.623 75.9116 28.623C76.0881 28.5955 76.2688 28.6235 76.4288 28.7031C76.5888 28.7827 76.7202 28.91 76.8048 29.0674C76.9461 29.3311 77.0586 29.6092 77.1404 29.897C77.17 29.9908 77.3329 29.9661 77.3181 29.8624C77.5303 28.6328 76.8394 26.7712 75.5464 26.4453Z" fill="#263238"/>
<path d="M68.7067 40.4099C67.7197 46.0046 73.78 64.853 77.664 68.3738C83.443 73.6081 94.1275 77.0499 98.0016 78.1708C99.6894 78.6646 104.358 66.7788 102.65 65.9937C98.9936 64.3296 87.6329 60.7742 86.5521 59.8854C85.4713 58.9965 78.9569 49.5798 76.0551 44.1578C72.1712 36.8594 69.1953 37.5804 68.7067 40.4099Z" fill="#EB9481"/>
<path d="M99.773 64.9453C99.773 64.9453 104.817 66.2341 108.069 67.2267C109.885 67.7847 112.915 69.0142 114.065 70.0315C115.783 71.5573 121.991 79.0236 120.214 80.5692C118.605 81.9716 114.085 74.8756 114.085 74.8756C114.085 74.8756 119.277 81.6308 117.046 82.9592C114.815 84.2875 110.734 75.5917 110.734 75.5917C110.734 75.5917 115.911 82.653 113.379 83.6554C111.464 84.4109 107.358 76.7422 107.358 76.7422C107.358 76.7422 111.77 82.8407 109.826 83.7048C107.684 84.6628 103.455 77.8187 103.455 77.8187C98.1642 79.1865 95.0649 77.6706 93.0267 76.3373C92.548 76.0114 99.773 64.9453 99.773 64.9453Z" fill="#EB9481"/>
<path d="M112.438 72.4222C113.08 73.1926 113.731 73.9728 114.298 74.7974C114.866 75.6221 115.404 76.4714 115.893 77.3454C116.555 78.4759 117.084 79.6788 117.472 80.9304C116.623 78.7577 114.634 75.7702 114.067 74.9456C113.499 74.1209 112.971 73.2666 112.408 72.442C112.394 72.4222 112.423 72.4025 112.438 72.4222Z" fill="#263238"/>
<path d="M109.422 74.4202C110.517 75.2893 112.812 78.5187 113.696 80.6865C113.735 80.7754 113.696 80.7705 113.631 80.6865C112.941 79.615 110.137 75.4671 109.397 74.435C109.382 74.4202 109.407 74.4054 109.422 74.4202Z" fill="#263238"/>
<path d="M106.526 75.6864C107.887 77.1151 108.963 78.7912 109.694 80.6244C109.729 80.7133 109.66 80.6985 109.605 80.6244C108.584 78.9603 107.794 77.6616 106.472 75.7308C106.452 75.6864 106.496 75.6419 106.526 75.6864Z" fill="#263238"/>
<path d="M74.2151 40.8181C69.7093 34.4431 67.0148 36.8035 67.9179 43.7266C68.7667 50.2003 71.0319 57.9135 71.0319 57.9135L82.3827 52.4027C82.3827 52.4027 77.0824 44.9018 74.2151 40.8181Z" fill="#F19B6C"/>
<path d="M76.9542 43.3281C77.1038 43.6882 77.2114 44.0643 77.275 44.4491C77.3443 44.835 77.3691 45.2277 77.349 45.6194C77.201 45.2574 77.095 44.8796 77.0332 44.4935C76.9598 44.1097 76.9333 43.7183 76.9542 43.3281Z" fill="white"/>
<path d="M70.2266 47.2011C70.9509 46.9063 71.7303 46.7716 72.5115 46.8061C72.1515 46.9542 71.7756 47.0602 71.3913 47.1221C71.0076 47.1954 70.6166 47.2219 70.2266 47.2011Z" fill="white"/>
<path d="M70.5191 37.2891C70.2134 38.0107 69.7575 38.6589 69.1816 39.1902C69.4873 38.4685 69.9432 37.8204 70.5191 37.2891Z" fill="white"/>
<path d="M80.1363 50.1797C79.9864 50.5408 79.796 50.8838 79.5687 51.2019C79.3474 51.524 79.089 51.819 78.7988 52.0808C79.1044 51.3592 79.5604 50.711 80.1363 50.1797Z" fill="white"/>
<path d="M72.2399 54.0452C71.8781 53.8971 71.5351 53.7065 71.2183 53.4774C70.8962 53.2561 70.6013 52.9975 70.3398 52.707C70.7004 52.8578 71.043 53.0482 71.3614 53.2749C71.6834 53.4964 71.9782 53.7549 72.2399 54.0452Z" fill="white"/>
<path d="M75.6947 42.7383C76.3017 43.5728 76.9285 44.3876 77.5503 45.2073C77.3924 44.7925 77.2542 44.3728 77.1358 43.9481H77.1654C77.2887 44.274 77.4319 44.595 77.5503 44.9357L77.728 45.4295C77.7433 45.4632 77.7565 45.4978 77.7675 45.5332C78.261 46.1702 78.7545 46.8072 79.2085 47.459C79.7662 48.2392 80.3041 49.0293 80.847 49.8194C81.3898 50.6095 81.9376 51.5921 82.5249 52.3872C82.5792 52.4563 81.5379 52.8809 81.4244 52.9353C81.3109 52.9896 81.2517 52.8958 81.3602 52.8612C81.4688 52.8266 82.2979 52.318 82.3078 52.3081C81.7649 51.5082 81.1381 50.7724 80.5706 49.9972C80.0031 49.2219 79.4405 48.4466 78.8927 47.6615C77.7823 46.0616 76.7656 44.4024 75.6602 42.7975L75.6947 42.7383Z" fill="#263238"/>
<path d="M68.1835 48.3074C68.3562 48.6432 68.5438 48.9741 68.677 49.3197L68.8646 49.7493C68.603 48.5198 68.371 47.2803 68.0996 46.0508C68.6227 48.026 69.1508 50.0456 69.6344 52.0505C70.0934 53.9664 70.6511 55.9021 70.9176 57.8576C71.2617 57.7065 71.6184 57.5859 71.9835 57.4971C71.6171 57.7344 71.2225 57.9252 70.809 58.065C70.2141 56.0765 69.7199 54.0592 69.3285 52.0208C69.2051 51.4678 69.0916 50.9147 68.9731 50.3617C68.8448 50.0259 68.6918 49.7049 68.5388 49.3741C68.3858 49.0432 68.2477 48.6729 68.1095 48.3223C68.1391 48.3025 68.1736 48.2828 68.1835 48.3074Z" fill="#263238"/>
<path d="M71.1993 56.0066C72.7785 55.1178 79.3768 51.7007 80.8524 51.0686C80.956 51.0242 81.0103 51.0686 80.9067 51.1377C77.7747 52.9587 74.5456 54.6072 71.2339 56.0758C71.1944 56.0856 71.1549 56.0313 71.1993 56.0066Z" fill="#263238"/>
<path d="M252.037 185.829H101.674L123.413 62.4531H273.776L252.037 185.829Z" fill="#F19B6C"/>
<path d="M174.878 49.6719H125.669L123.414 62.4514H176.082L174.878 49.6719Z" fill="#F19B6C"/>
<g opacity="0.1">
<path d="M252.22 186.001H101.861L123.601 62.625H273.964L252.22 186.001Z" fill="#A32600"/>
<path d="M175.063 49.8438H125.85L123.6 62.6233H176.262L175.063 49.8438Z" fill="#A32600"/>
</g>
<path d="M120.358 54.8859C120.029 53.4728 120.029 52.0029 120.358 50.5898C120.687 52.0029 120.687 53.4728 120.358 54.8859Z" fill="#263238"/>
<path d="M115.986 56.1509C115.483 55.6295 115.05 55.0453 114.698 54.4127C114.328 53.7933 114.038 53.1297 113.834 52.4375C114.338 52.9558 114.771 53.5386 115.122 54.1707C115.491 54.7923 115.781 55.4575 115.986 56.1509Z" fill="#263238"/>
<path d="M112.827 59.4332C111.441 59.0113 110.169 58.2764 109.111 57.2852C109.803 57.4864 110.467 57.7751 111.085 58.1444C111.718 58.4995 112.303 58.9324 112.827 59.4332Z" fill="#263238"/>
<path d="M111.721 63.8602C110.309 64.1895 108.84 64.1895 107.428 63.8602C108.84 63.531 110.309 63.531 111.721 63.8602Z" fill="#263238"/>
<path d="M113.004 68.2344C112.481 68.7346 111.897 69.1675 111.267 69.5232C110.648 69.8925 109.985 70.1812 109.293 70.3824C109.814 69.8796 110.398 69.4464 111.03 69.0936C111.648 68.7226 112.312 68.4337 113.004 68.2344Z" fill="#263238"/>
<path d="M116.282 71.3906C115.861 72.7803 115.127 74.0544 114.135 75.1139C114.336 74.4208 114.626 73.7568 114.998 73.1387C115.35 72.5038 115.781 71.9164 116.282 71.3906Z" fill="#263238"/>
<path d="M120.703 72.4805C120.875 73.1833 120.958 73.905 120.95 74.6285C120.961 75.3522 120.878 76.0742 120.703 76.7765C120.526 76.0746 120.443 75.3523 120.456 74.6285C120.448 73.905 120.531 73.1833 120.703 72.4805Z" fill="#263238"/>
<path d="M125.076 71.2403C125.579 71.7617 126.012 72.346 126.364 72.9785C126.735 73.5968 127.024 74.2608 127.223 74.9537C126.231 73.8942 125.496 72.6201 125.076 71.2305V71.2403Z" fill="#263238"/>
<path d="M128.23 67.9336C128.923 68.1329 129.587 68.4218 130.205 68.7928C130.837 69.1456 131.421 69.5788 131.942 70.0816C131.249 69.8823 130.586 69.5934 129.968 69.2224C129.335 68.8696 128.752 68.4364 128.23 67.9336Z" fill="#263238"/>
<path d="M129.32 63.5086C130.734 63.1794 132.205 63.1794 133.619 63.5086C132.205 63.8377 130.734 63.8377 129.32 63.5086Z" fill="#263238"/>
<path d="M128.057 59.1324C128.579 58.6326 129.163 58.2012 129.794 57.8485C130.411 57.4739 131.074 57.1833 131.768 56.9844C130.709 57.977 129.436 58.712 128.047 59.1324H128.057Z" fill="#263238"/>
<path d="M124.775 55.979C124.979 55.2875 125.267 54.624 125.634 54.0038C125.987 53.3712 126.42 52.787 126.922 52.2656C126.723 52.9586 126.434 53.6226 126.063 54.2408C125.711 54.8734 125.278 55.4576 124.775 55.979Z" fill="#263238"/>
<path d="M251.815 185.827H101.126L79.7324 66.9297H230.421L251.815 185.827Z" fill="#F19B6C"/>
<path d="M131.95 139.615C135.409 139.615 138.213 136.809 138.213 133.348C138.213 129.888 135.409 127.082 131.95 127.082C128.491 127.082 125.688 129.888 125.688 133.348C125.688 136.809 128.491 139.615 131.95 139.615Z" fill="#263238"/>
<path d="M181.46 139.615C184.919 139.615 187.723 136.809 187.723 133.348C187.723 129.888 184.919 127.082 181.46 127.082C178.001 127.082 175.197 129.888 175.197 133.348C175.197 136.809 178.001 139.615 181.46 139.615Z" fill="#263238"/>
<path d="M165.701 140.616L165.356 139.959C165.326 139.9 162.089 133.915 155.579 133.915C149.657 133.915 148.177 139.549 148.137 139.791L147.96 140.507L146.523 140.162L146.696 139.441C146.696 139.371 148.463 132.434 155.579 132.434C162.982 132.434 166.521 138.991 166.669 139.273L167.014 139.925L165.701 140.616Z" fill="#263238"/>
<path d="M241.816 132.628C242.137 132.559 242.458 132.485 242.774 132.406" stroke="#263238" stroke-miterlimit="10"/>
<path d="M244.669 131.843C252.22 129.29 258.542 123.35 259.134 116.407C260.447 101.099 241.817 92.6452 243.741 74.9573C245.577 58.0841 263.265 56.8792 270.356 59.21C278.188 61.7876 275.504 69.3181 268.412 68.3453C256.118 66.6614 248.39 53.2893 254.228 38.1197C258.591 26.787 269.468 22.5107 273.885 21.207" stroke="#263238" stroke-miterlimit="10" stroke-dasharray="4 4"/>
<path d="M274.838 20.9449C275.445 20.7868 275.795 20.7227 275.795 20.7227" stroke="#263238" stroke-miterlimit="10"/>
<path d="M283.621 17.9895C282.363 14.0884 273.933 15.4908 275.577 20.5918C277.22 25.6928 284.88 21.8954 283.621 17.9895Z" fill="#263238"/>
<path d="M270.994 16.4304C271.058 14.7169 273.436 13.3984 276.802 14.0058C280.168 14.6132 283.331 16.8846 283.331 16.8846C283.331 16.8846 280.01 18.8994 276.61 19.2697C273.209 19.6401 270.929 18.1389 270.994 16.4304Z" fill="#EBEBEB"/>
<path d="M283.332 16.8734C281.585 16.8734 279.842 16.8241 278.1 16.7697C276.358 16.7154 274.611 16.6265 272.869 16.4883C274.616 16.4883 276.363 16.5327 278.105 16.587C279.847 16.6414 281.594 16.7302 283.332 16.8734Z" fill="#263238"/>
<path d="M274.373 14.9062C275.365 15.381 276.3 15.9657 277.161 16.6494C276.665 16.4163 276.184 16.1525 275.72 15.8593C275.253 15.5681 274.803 15.2499 274.373 14.9062Z" fill="#263238"/>
<path d="M278.948 16.7109C278.055 17.4349 277.087 18.0607 276.061 18.5775C276.958 17.8526 277.931 17.2268 278.962 16.7109H278.948Z" fill="#263238"/>
<path d="M279.457 15.75C279.955 15.9893 280.391 16.3408 280.73 16.7771C280.481 16.6595 280.248 16.5119 280.034 16.3376C279.82 16.1644 279.626 15.9673 279.457 15.75Z" fill="#263238"/>
<path d="M274.201 26.578C275.252 27.931 277.951 27.6051 280.325 25.146C282.699 22.6869 283.957 18.9883 283.957 18.9883C283.957 18.9883 280.069 19.2846 277.103 20.9635C274.137 22.6424 273.145 25.2201 274.201 26.578Z" fill="#EBEBEB"/>
<path d="M283.957 18.9883C282.535 19.9759 281.154 21.0721 279.767 22.1338C278.38 23.1955 277.023 24.2917 275.695 25.4225C277.117 24.4349 278.498 23.3436 279.88 22.2819C281.262 21.2203 282.609 20.124 283.957 18.9883Z" fill="#263238"/>
<path d="M277.828 25.8113C278.092 25.3317 278.328 24.837 278.534 24.3299C278.744 23.8214 278.922 23.3003 279.067 22.7695C278.802 23.2488 278.567 23.7435 278.361 24.2509C278.153 24.7602 277.975 25.2812 277.828 25.8113Z" fill="#263238"/>
<path d="M280.503 21.6834C279.349 21.6217 278.191 21.6829 277.049 21.8661C277.624 21.9007 278.201 21.9007 278.776 21.8661C279.355 21.8379 279.932 21.7769 280.503 21.6834Z" fill="#263238"/>
<path d="M281.455 22.1749C281.587 21.9311 281.69 21.6725 281.761 21.4046C281.834 21.1387 281.877 20.8654 281.889 20.5898C281.627 21.0787 281.479 21.6206 281.455 22.1749Z" fill="#263238"/>
<path d="M283.621 17.9919C283.343 18.0825 283.043 18.0883 282.761 18.0085C282.479 17.9287 282.227 17.767 282.037 17.5439C281.847 17.3207 281.728 17.0461 281.694 16.7549C281.66 16.4637 281.713 16.1689 281.846 15.9079C281.98 15.6469 282.188 15.4314 282.444 15.2888C282.7 15.1461 282.992 15.0826 283.284 15.1065C283.576 15.1303 283.855 15.2403 284.084 15.4225C284.314 15.6048 284.484 15.8511 284.574 16.1303C284.694 16.5036 284.661 16.9091 284.482 17.258C284.303 17.607 283.994 17.8709 283.621 17.9919Z" fill="#455A64"/>
<path d="M284.53 20.8088C284.252 20.899 283.953 20.9045 283.671 20.8247C283.389 20.7449 283.137 20.5833 282.948 20.3603C282.758 20.1374 282.638 19.8631 282.604 19.5721C282.57 19.2812 282.623 18.9866 282.756 18.7257C282.889 18.4648 283.096 18.2493 283.352 18.1063C283.607 17.9634 283.9 17.8994 284.191 17.9226C284.483 17.9458 284.762 18.055 284.992 18.2365C285.221 18.418 285.392 18.6636 285.483 18.9423C285.543 19.1274 285.566 19.3225 285.55 19.5166C285.535 19.7106 285.481 19.8997 285.393 20.073C285.304 20.2464 285.183 20.4006 285.035 20.5268C284.887 20.6531 284.715 20.7489 284.53 20.8088Z" fill="#455A64"/>
<path d="M122.731 19.5476C122.495 21.8157 121.633 23.9734 120.242 25.78C118.852 27.5866 116.986 28.9709 114.855 29.7786C112.724 30.5863 110.41 30.7855 108.172 30.3539C105.934 29.9224 103.86 28.8771 102.181 27.3348L96.0273 28.2385L99.1069 22.9153C98.4026 21.1832 98.1022 19.3133 98.2283 17.4477C98.3544 15.582 98.9038 13.7697 99.8347 12.1483C100.766 10.5269 102.054 9.13911 103.601 8.09035C105.148 7.04158 106.914 6.35941 108.764 6.09567C110.614 5.83193 112.5 5.99355 114.278 6.56825C116.057 7.14295 117.681 8.11561 119.027 9.41236C120.374 10.7091 121.407 12.2958 122.049 14.052C122.691 15.8082 122.924 17.6876 122.731 19.5476Z" fill="white"/>
<path d="M122.732 19.5486C122.5 21.8155 121.646 23.9741 120.264 25.7853C119.589 26.7013 118.775 27.506 117.851 28.1703C116.947 28.8595 115.95 29.4165 114.89 29.8246C113.829 30.2427 112.714 30.5087 111.578 30.6146C111.01 30.6656 110.44 30.6772 109.871 30.6492C109.299 30.6345 108.73 30.5751 108.168 30.4714C105.9 30.0539 103.793 29.0126 102.083 27.4642L102.226 27.5086L96.0819 28.4518L95.6328 28.5209L95.8598 28.1259L98.9196 22.7928V23.0052C98.1976 21.2411 97.8906 19.3346 98.0224 17.4329C98.1542 15.5312 98.7212 13.6853 99.6796 12.0378C100.637 10.3956 101.953 8.99108 103.529 7.92942C105.103 6.88186 106.893 6.2044 108.766 5.94784C110.638 5.69128 112.545 5.86228 114.342 6.44802C116.12 7.05331 117.74 8.04874 119.085 9.36145C120.426 10.6709 121.451 12.2688 122.083 14.0339C122.715 15.799 122.937 17.6849 122.732 19.5486ZM122.732 19.5486C122.931 17.6941 122.702 15.8185 122.062 14.0668C121.422 12.315 120.388 10.7338 119.04 9.44533C117.692 8.15685 116.066 7.19554 114.288 6.6356C112.51 6.07566 110.627 5.93207 108.785 6.21593C106.961 6.48606 105.224 7.17199 103.707 8.22077C102.203 9.27778 100.947 10.6493 100.025 12.2403C99.1177 13.8348 98.5829 15.6142 98.4606 17.445C98.3405 19.2881 98.6374 21.1347 99.3292 22.8472L99.3736 22.9558L99.3144 23.0595L96.2152 28.3728L95.998 28.0469L102.157 27.1827H102.241L102.3 27.237C103.947 28.7703 105.987 29.815 108.193 30.2542C108.742 30.3662 109.3 30.4339 109.861 30.4566C110.421 30.4961 110.983 30.4961 111.544 30.4566C112.667 30.366 113.773 30.1218 114.83 29.7307C115.89 29.3447 116.888 28.8057 117.792 28.1308C118.711 27.4719 119.527 26.6778 120.21 25.7754C121.61 23.973 122.482 21.8175 122.732 19.5486Z" fill="#263238"/>
<path d="M104.486 24.0083C104.477 23.8449 104.501 23.6812 104.557 23.5274C104.614 23.3737 104.701 23.2332 104.814 23.1147C104.927 22.9961 105.063 22.9021 105.214 22.8384C105.365 22.7746 105.527 22.7426 105.691 22.7442C106.026 22.7442 106.347 22.8774 106.584 23.1145C106.821 23.3515 106.954 23.6731 106.954 24.0083C106.954 24.3436 106.821 24.6651 106.584 24.9022C106.347 25.1393 106.026 25.2725 105.691 25.2725C105.527 25.2741 105.365 25.2421 105.214 25.1783C105.063 25.1146 104.927 25.0205 104.814 24.902C104.701 24.7835 104.614 24.643 104.557 24.4892C104.501 24.3355 104.477 24.1718 104.486 24.0083ZM104.98 21.09L104.694 11.293H106.668L106.381 21.09H104.98Z" fill="#F19B6C"/>
<path d="M109.18 24.0083C109.17 23.8453 109.194 23.682 109.25 23.5286C109.307 23.3752 109.393 23.235 109.506 23.1165C109.618 22.998 109.754 22.9039 109.904 22.8398C110.054 22.7758 110.216 22.7433 110.379 22.7442C110.714 22.7442 111.035 22.8774 111.272 23.1145C111.509 23.3515 111.642 23.6731 111.642 24.0083C111.642 24.3436 111.509 24.6651 111.272 24.9022C111.035 25.1393 110.714 25.2725 110.379 25.2725C110.216 25.2734 110.054 25.2409 109.904 25.1768C109.754 25.1128 109.618 25.0187 109.506 24.9002C109.393 24.7817 109.307 24.6415 109.25 24.4881C109.194 24.3347 109.17 24.1714 109.18 24.0083ZM109.673 21.09L109.402 11.293H111.376L111.09 21.09H109.673Z" fill="#F19B6C"/>
<path d="M113.867 24.0083C113.858 23.8449 113.882 23.6812 113.938 23.5274C113.995 23.3737 114.082 23.2332 114.195 23.1147C114.308 22.9961 114.444 22.9021 114.595 22.8384C114.746 22.7746 114.908 22.7426 115.071 22.7442C115.406 22.7442 115.728 22.8774 115.965 23.1145C116.202 23.3515 116.335 23.6731 116.335 24.0083C116.335 24.3436 116.202 24.6651 115.965 24.9022C115.728 25.1393 115.406 25.2725 115.071 25.2725C114.908 25.2741 114.746 25.2421 114.595 25.1783C114.444 25.1146 114.308 25.0205 114.195 24.902C114.082 24.7835 113.995 24.643 113.938 24.4892C113.882 24.3355 113.858 24.1718 113.867 24.0083ZM114.361 21.09L114.075 11.293H116.049L115.767 21.09H114.361Z" fill="#F19B6C"/>
</g>
<defs>
<clipPath id="clip0_2151_32438">
<rect width="302" height="186" fill="white"/>
</clipPath>
</defs>
</svg>
