<?xml version="1.0" standalone="no"?>
<!DOCTYPE svg PUBLIC "-//W3C//DTD SVG 20010904//EN"
 "http://www.w3.org/TR/2001/REC-SVG-20010904/DTD/svg10.dtd">
<svg version="1.0" xmlns="http://www.w3.org/2000/svg"
 width="500.000000pt" height="500.000000pt" viewBox="0 0 500.000000 500.000000"
 preserveAspectRatio="xMidYMid meet">

<g transform="translate(0.000000,500.000000) scale(0.100000,-0.100000)"
fill="#000000" stroke="none">
<path d="M2443 4985 c-236 -66 -363 -291 -293 -518 72 -232 337 -350 555 -248
239 111 315 400 161 610 -96 131 -277 197 -423 156z"/>
<path d="M1881 4024 c-132 -35 -239 -125 -298 -251 l-37 -78 -7 -180 c-4 -99
-8 -463 -8 -810 -1 -595 0 -632 18 -671 23 -51 71 -89 132 -104 82 -21 172 19
211 92 l23 43 5 761 c4 625 7 764 19 777 17 21 35 21 55 1 14 -14 16 -184 16
-1717 0 -1928 -8 -1743 84 -1824 91 -81 210 -81 301 -1 87 77 79 -21 85 1093
l5 990 50 0 50 0 5 -990 c6 -1114 -2 -1016 85 -1093 100 -88 234 -77 328 27
19 22 40 57 46 78 8 26 11 569 11 1734 0 1305 3 1698 12 1707 19 19 45 14 62
-10 14 -19 16 -71 16 -363 0 -308 2 -344 19 -380 10 -22 28 -49 41 -60 12 -11
124 -86 248 -166 l227 -145 5 -65 5 -64 50 -5 50 -5 3 -267 2 -268 -61 0 c-65
0 -105 -17 -130 -54 -21 -32 -26 -1419 -5 -1470 20 -48 55 -67 131 -74 l65 -5
0 -73 c0 -62 3 -77 23 -100 30 -35 79 -37 110 -5 18 18 23 35 25 101 l4 80
173 0 172 0 5 -79 c5 -84 15 -107 57 -122 33 -13 75 5 90 37 6 14 11 56 11 93
l0 68 66 6 c71 5 109 25 131 68 10 18 13 190 13 732 0 777 2 750 -60 782 -16
8 -55 15 -90 15 l-60 0 2 268 3 267 50 5 50 5 3 89 c2 65 -1 92 -10 98 -7 4
-132 8 -276 8 l-264 0 7 40 c8 46 -7 102 -41 146 -13 17 -117 91 -237 168
l-214 137 -5 307 c-5 287 -7 312 -29 377 -46 137 -164 251 -306 295 -62 19
-90 20 -667 19 -492 0 -611 -3 -655 -15z m2427 -1947 l2 -267 -175 0 -175 0 0
263 c0 145 2 266 5 268 2 3 80 5 172 4 l168 -1 3 -267z"/>
<path d="M745 1316 c-37 -17 -70 -52 -84 -89 -6 -16 -11 -78 -11 -138 l0 -109
-120 0 c-135 0 -169 -10 -195 -60 -23 -44 -22 -817 1 -861 30 -59 29 -59 644
-59 626 0 618 -1 645 64 22 53 22 813 0 856 -26 50 -60 60 -195 60 l-120 0 0
119 c0 106 -2 121 -22 151 -50 73 -55 75 -296 77 -166 2 -224 0 -247 -11z
m395 -246 l0 -90 -160 0 -160 0 0 90 0 90 160 0 160 0 0 -90z"/>
</g>
</svg>
