<svg width="16" height="16" viewBox="0 0 16 16" fill="none" xmlns="http://www.w3.org/2000/svg">
<path d="M8.58934 8.00334L5.29634 4.71034C5.11418 4.52173 5.01338 4.26913 5.01566 4.00694C5.01794 3.74474 5.12311 3.49393 5.30852 3.30852C5.49393 3.12311 5.74474 3.01794 6.00694 3.01566C6.26913 3.01338 6.52173 3.11418 6.71034 3.29634L10.7103 7.29634C10.8978 7.48386 11.0031 7.73817 11.0031 8.00334C11.0031 8.2685 10.8978 8.52281 10.7103 8.71034L6.71034 12.7103C6.52173 12.8925 6.26913 12.9933 6.00694 12.991C5.74474 12.9887 5.49393 12.8836 5.30852 12.6982C5.12311 12.5127 5.01794 12.2619 5.01566 11.9997C5.01338 11.7375 5.11418 11.4849 5.29634 11.2963L8.58934 8.00334Z" fill="white"/>
</svg>
