<?xml version="1.0" standalone="no"?>
<!DOCTYPE svg PUBLIC "-//W3C//DTD SVG 20010904//EN"
 "http://www.w3.org/TR/2001/REC-SVG-20010904/DTD/svg10.dtd">
<svg version="1.0" xmlns="http://www.w3.org/2000/svg"
 width="96.000000pt" height="96.000000pt" viewBox="0 0 96.000000 96.000000"
 preserveAspectRatio="xMidYMid meet">

<g transform="translate(0.000000,96.000000) scale(0.100000,-0.100000)"
fill="#000000" stroke="none">
<path d="M412 824 c-18 -10 -45 -33 -60 -52 -22 -29 -27 -46 -27 -92 0 -47 5
-63 29 -94 87 -115 267 -67 283 76 7 57 -15 108 -61 143 -46 35 -116 43 -164
19z m123 -89 c50 -49 15 -135 -55 -135 -19 0 -40 9 -55 25 -50 49 -15 135 55
135 19 0 40 -9 55 -25z"/>
<path d="M353 384 c-93 -20 -159 -52 -198 -95 -32 -36 -35 -44 -35 -104 l0
-65 186 0 186 0 -6 23 c-3 12 -6 30 -6 40 0 15 -13 17 -140 17 -111 0 -140 3
-140 13 0 39 126 93 240 103 66 6 71 9 90 41 11 19 20 36 20 39 0 9 -138 1
-197 -12z"/>
<path d="M717 394 c-4 -4 -7 -15 -7 -25 0 -25 -49 -49 -77 -38 -18 7 -25 2
-43 -27 -21 -34 -21 -64 0 -64 5 0 10 -18 10 -40 0 -22 -5 -40 -10 -40 -21 0
-21 -30 0 -64 18 -30 24 -34 43 -27 30 12 70 -10 77 -41 5 -20 12 -23 50 -23
38 0 45 3 48 21 4 28 51 54 79 43 18 -7 25 -2 43 27 21 34 21 64 0 64 -17 0
-12 77 5 84 20 7 19 22 -6 62 -17 28 -24 32 -42 25 -30 -12 -70 10 -77 41 -5
19 -13 24 -46 26 -22 2 -43 0 -47 -4z m90 -146 c29 -27 29 -65 1 -95 -27 -29
-65 -29 -95 -1 -29 27 -29 65 -1 95 27 29 65 29 95 1z"/>
</g>
</svg>
