<svg width="28" height="28" viewBox="0 0 28 28" fill="none" xmlns="http://www.w3.org/2000/svg">
<path d="M22.9159 10.1342V20.9494C22.9159 24.2771 20.9303 25.3863 18.4789 25.3863H9.60494C7.15352 25.3863 5.16797 24.2771 5.16797 20.9494V10.1342C5.16797 6.5292 7.15352 5.69727 9.60494 5.69727C9.60494 6.385 9.88225 7.00617 10.337 7.46096C10.7918 7.91575 11.413 8.19306 12.1007 8.19306H15.9831C17.3586 8.19306 18.4789 7.07273 18.4789 5.69727C20.9303 5.69727 22.9159 6.5292 22.9159 10.1342Z" stroke="white" stroke-width="1.37699" stroke-linecap="round" stroke-linejoin="round"/>
<path d="M9.60547 15.4038H14.0424M9.60547 19.8408H18.4794M18.4794 5.69795C18.4794 7.07341 17.3591 8.19374 15.9836 8.19374H12.1013C11.4135 8.19374 10.7924 7.91643 10.3376 7.46164C9.88278 7.00685 9.60547 6.38568 9.60547 5.69795C9.60547 4.32248 10.7258 3.20215 12.1013 3.20215H15.9836C16.6714 3.20215 17.2925 3.47946 17.7473 3.93425C18.2021 4.38904 18.4794 5.01022 18.4794 5.69795Z" stroke="white" stroke-width="1.37699" stroke-linecap="round" stroke-linejoin="round"/>
</svg>
