<svg width="64" height="64" viewBox="0 0 64 64" fill="none" xmlns="http://www.w3.org/2000/svg">
<path d="M54.1654 63.6693H9.83203C7.31247 63.6693 4.89611 62.6684 3.11452 60.8868C1.33292 59.1052 0.332031 56.6888 0.332031 54.1693V3.5026C0.332031 2.66275 0.665661 1.8573 1.25953 1.26343C1.85339 0.669567 2.65885 0.335938 3.4987 0.335938H47.832C48.6719 0.335938 49.4773 0.669567 50.0712 1.26343C50.6651 1.8573 50.9987 2.66275 50.9987 3.5026V41.5026H63.6654V54.1693C63.6654 56.6888 62.6645 59.1052 60.8829 60.8868C59.1013 62.6684 56.6849 63.6693 54.1654 63.6693ZM50.9987 47.8359V54.1693C50.9987 55.0091 51.3323 55.8146 51.9262 56.4084C52.5201 57.0023 53.3255 57.3359 54.1654 57.3359C55.0052 57.3359 55.8107 57.0023 56.4045 56.4084C56.9984 55.8146 57.332 55.0091 57.332 54.1693V47.8359H50.9987ZM12.9987 16.1693V22.5026H38.332V16.1693H12.9987ZM12.9987 28.8359V35.1693H38.332V28.8359H12.9987ZM12.9987 41.5026V47.8359H28.832V41.5026H12.9987Z" fill="#F19B6C"/>
</svg>
