<svg width="14" height="14" viewBox="0 0 14 14" fill="none" xmlns="http://www.w3.org/2000/svg">
<path d="M7.00039 0.400391C3.36115 0.400391 0.400391 3.36115 0.400391 7.00039C0.400391 10.6396 3.36115 13.6004 7.00039 13.6004C10.6396 13.6004 13.6004 10.6396 13.6004 7.00039C13.6004 3.36115 10.6396 0.400391 7.00039 0.400391ZM7.66039 10.2443V10.9604H6.34039V10.2476C4.79665 10.0054 4.36039 8.92627 4.36039 8.32039H5.68039C5.68765 8.41477 5.78533 8.98039 7.00039 8.98039C7.91119 8.98039 8.32039 8.59429 8.32039 8.32039C8.32039 8.10655 8.32039 7.66039 7.00039 7.66039C4.70359 7.66039 4.36039 6.41959 4.36039 5.68039C4.36039 4.83031 5.03953 3.97495 6.34039 3.75649V3.04831H7.66039V3.78025C8.80483 4.05085 9.24439 5.00323 9.24439 5.68039H8.58439L7.92439 5.69227C7.91515 5.44147 7.78249 5.02039 7.00039 5.02039C6.14305 5.02039 5.68039 5.36095 5.68039 5.68039C5.68039 5.92723 5.68039 6.34039 7.00039 6.34039C9.29719 6.34039 9.64039 7.58119 9.64039 8.32039C9.64039 9.17047 8.96125 10.0258 7.66039 10.2443Z" fill="#929292"/>
</svg>
