<svg xmlns="http://www.w3.org/2000/svg" width="12" height="12" viewBox="0 0 12 12" fill="none">
<path fill-rule="evenodd" clip-rule="evenodd" d="M2.99257 2.13704H2.6761C2.44574 2.13704 2.25892 1.95022 2.25879 1.71986V0.417178C2.25879 0.186691 2.44561 0 2.67597 0H2.99243C3.22292 0 3.40961 0.186825 3.40961 0.417178L3.40974 1.71986C3.40974 1.95035 3.22292 2.13704 2.99257 2.13704ZM12 4.69775H0V11.9609H12V4.69775ZM10.3146 1.06934V1.90153C10.3146 2.39438 9.91363 2.79534 9.42078 2.79534H8.74273C8.24989 2.79534 7.84893 2.39438 7.84893 1.90153V1.06934H4.06834V1.90153C4.06834 2.39438 3.66738 2.79534 3.17453 2.79534H2.49648C2.00364 2.79534 1.60268 2.39438 1.60268 1.90153V1.06934H0V3.9459H11.9997V1.06934H10.3146ZM9.24159 2.13704H8.92512C8.69477 2.13704 8.50795 1.95022 8.50781 1.71986V0.417178C8.50781 0.186691 8.69464 0 8.92499 0H9.24146C9.47194 0 9.65863 0.186825 9.65863 0.417178L9.65877 1.71986C9.65877 1.95035 9.47194 2.13704 9.24159 2.13704ZM1 5.59961H10V7.59961H1V5.59961ZM7 8.19922H1V10.1992H7V8.19922Z" fill="#929292"/>
</svg>