<svg width="14" height="14" viewBox="0 0 14 14" fill="none" xmlns="http://www.w3.org/2000/svg">
<path d="M13.3892 5.10409L9.07393 4.48728L7.23812 0.346618C7.17231 0.217496 7.04239 0.136719 6.9011 0.136719C6.7596 0.136719 6.62978 0.217602 6.56399 0.346618L4.65206 4.44416L0.329326 5.03354C0.184798 5.05392 0.0642702 5.15757 0.0189116 5.30051C-0.0264418 5.44366 0.0112518 5.60074 0.116169 5.70534L3.26211 8.87165L2.44334 13.3623C2.41834 13.5084 2.47508 13.6566 2.59028 13.7455C2.70538 13.8343 2.85929 13.8488 2.98819 13.7827L6.82715 11.6219L10.6357 13.8219C10.7601 13.8857 10.9084 13.8747 11.0225 13.7928C11.1368 13.711 11.1987 13.5716 11.184 13.429L10.4223 8.93064L13.5987 5.78775C13.7108 5.68483 13.7538 5.52358 13.7086 5.37595C13.6633 5.22842 13.5383 5.12197 13.3893 5.10408L13.3892 5.10409Z" fill="#A8A8A8"/>
</svg>
