<svg width="16" height="20" viewBox="0 0 16 20" fill="none" xmlns="http://www.w3.org/2000/svg">
<path d="M13.9974 3.79688H1.9974C1.2574 3.79688 0.664062 4.39009 0.664062 5.12995V13.1284C0.664063 13.482 0.804538 13.821 1.05459 14.071C1.30464 14.321 1.64377 14.4615 1.9974 14.4615H5.33073V15.7945H10.6641V14.4615H13.9974C14.7307 14.4615 15.3241 13.8616 15.3241 13.1284L15.3307 5.12995C15.3307 4.7764 15.1903 4.43732 14.9402 4.18732C14.6902 3.93732 14.351 3.79688 13.9974 3.79688ZM13.9974 13.1284H1.9974V5.12995H13.9974V13.1284ZM10.6641 9.12917L5.9974 11.7953V6.46302L10.6641 9.12917Z" fill="white"/>
</svg>
