<?xml version="1.0" encoding="UTF-8"?>
<svg id="Layer_2" data-name="Layer 2" xmlns="http://www.w3.org/2000/svg" viewBox="0 0 775.45 387.25">
  <defs>
    <style>
      .cls-1 {
        fill: #fff;
      }
    </style>
  </defs>
  <g id="Layer_1-2" data-name="Layer 1">
    <path class="cls-1" d="m775.45,10.97V0h-178.9c-83.65,1.25-142.24,36.34-175.45,85.22v-46.37c0-16.61,10.97-27.57,27.57-27.57V.31h-121.88v10.97c16.61,0,27.57,10.97,27.57,27.57v46.37C321.14,36.66,262.56,1.57,178.9,0H0v10.97c18.17,0,30.39,10.97,30.39,27.57v310.18c0,16.61-12.22,27.57-30.39,27.57v10.97h173.89c86.16,0,146.32-35.72,180.47-85.22v46.37c0,16.61-10.97,27.57-27.57,27.57v10.97h121.88v-10.97c-16.61,0-27.57-10.97-27.57-27.57v-46.37c34.15,49.5,93.99,85.22,180.47,85.22h173.89v-10.97c-18.17,0-30.39-10.97-30.39-27.57V38.54c0-16.61,12.22-27.57,30.39-27.57ZM174.83,376.29h-40.73c-18.17,0-30.39-10.97-30.39-27.57V38.54c0-16.61,12.22-27.57,30.39-27.57h40.73c183.91,0,183.91,365.32,0,365.32Zm497.23-27.57c0,16.61-12.22,27.57-30.39,27.57h-40.73c-183.91,0-183.91-365.32,0-365.32h40.73c18.17,0,30.39,10.97,30.39,27.57v310.18Z"/>
  </g>
</svg>